<?xml version="1.0" encoding="UTF-8"?>
<svg id="Livello_1" xmlns="http://www.w3.org/2000/svg" xmlns:xlink="http://www.w3.org/1999/xlink" version="1.1" viewBox="0 0 4000 4000">
  <!-- Generator: Adobe Illustrator 29.5.1, SVG Export Plug-In . SVG Version: 2.1.0 Build 141)  -->
  <defs>
    <style>
      .st0 {
        fill: none;
      }

      .st1 {
        font-family: Rubik-Regular, Rubik;
        font-size: 651.5px;
      }

      .st1, .st2 {
        fill: #699596;
      }

      .st3 {
        clip-path: url(#clippath-1);
      }

      .st4 {
        clip-path: url(#clippath);
      }

      .st5 {
        fill: #e3d094;
      }
    </style>
    <path id="path" d="M2018,189.7c1019.6,18.7,1831,860.3,1812.3,1879.9-18.7,1019.6-860.3,1831-1879.9,1812.3-1019.6-18.7-1831-860.3-1812.3-1879.9C156.8,982.5,998.5,171.1,2018,189.7Z"/>
    <clipPath id="clippath">
      <circle class="st0" cx="1984.3" cy="2035.8" r="1846.7"/>
    </clipPath>
    <path id="path1" d="M3255.6,421656.2c3.3,0,5.8,2.7,5.8,6,0,3.3-2.7,5.8-6,5.8-3.3,0-5.8-2.7-5.8-6,0-3.3,2.7-5.8,6-5.8Z"/>
    <clipPath id="clippath-1">
      <circle class="st0" cx="3255.5" cy="421662.1" r="5.9"/>
    </clipPath>
  </defs>
  <circle class="st5" cx="1984.3" cy="2035.8" r="1910.4"/>
  <text>
    <textPath startOffset="87%" xlink:href="#path"><tspan class="st1"><tspan x="0" y="0">FACIT•IN•MANTUA</tspan></tspan>
    </textPath></text>
  <g>
    <path class="st2" d="M1979,1551.6h-406.4s-125.1,0-125.1,0c-15.9,0-48.7,1-62.8-.5-1.2-3.5-.7-4.2-.3-8.1,4.6-7.7,106-56,123.1-64.6l160.2-81.7c101.8-51.7,208.1-108.2,310.5-157,12.8-1.3,110,52.4,129.3,62,106.1,52.1,211.6,105.2,316.6,159.5,47.6,24.4,96.8,47.1,143.8,72.8,6.1,3.3,3.8,12.2.3,17-10.6,1.5-45.2.6-57.4.6l-117.4-.2h-414.3Z"/>
    <path class="st2" d="M1391.3,1560.9l242.4-.7,936.6.5v98.8s-242.7.8-242.7.8l-511-.2c-92.4.5-184.9.6-277.3.1-48.6,0-99.4,1.1-147.8-.1-.7-33.1-.8-66.1-.2-99.2Z"/>
    <path class="st2" d="M1609.6,1704.1c-45,.8-91.4-.9-136.6.3-5.5-.3-16.3.7-19.6-4.8-5.6-9.3-2.5-20.2,5.5-26.6,47.1-2.9,98.8.4,146.3-.2,16-.2,18.7,23.5,4.5,31.3Z"/>
    <path class="st2" d="M1906,1704.3c-45.1,0-90.4.2-135.5,0-5-.4-16.3-.7-19.1-5.7-5.3-9.4,0-20.1,7.9-25.5,27.6-1.7,57.7,0,85.6-.6,19.1-.4,41.5-.7,60.2,1.2,11.2,1.1,15.6,22.8.9,30.7Z"/>
    <path class="st2" d="M2205.6,1703.4c-46.4,2.7-97.2-.6-144,.1-17.5.3-18.3-19.7-6.3-30.5,45.9-2.7,96.2.3,142.4.3,19.2,0,20.3,19.6,7.9,30.1Z"/>
    <path class="st2" d="M2500.3,1704.1c-30.7.4-106.2.4-141.6-.6-6.6-.2-19.8-23,3.2-30.4,19.5-.8,130.7-2.5,141.4,1.8,3.5,1.4,5.2,3.3,6.6,6.8,1.8,4.5.6,12.4-1.6,16.6-1.9,3.4-4.6,4.4-8,5.8Z"/>
    <path class="st2" d="M1457,2396.2c2.4-159.4,5.8-318.8,10.1-478.1.8-45.8,1.9-91.6,3.3-137.4.2-11.5,0-59.2,2.5-68.2l2.9-1.1c39.3-.1,78.5,0,117.8.5,1.9,21.5,1.8,59,2.3,81.7l4,166.8,5.5,228.9c2.3,68.7,3.7,137.4,4.4,206.2-5.7.4-11.9.5-17.7.7h-135.2Z"/>
    <path class="st2" d="M2074.5,1712c25.1-.9,53-.4,78.3-.5,12.9-.3,25.8-.3,38.6,0l11.2,449.3c1.7,76.3,5.5,159.4,4.9,235.2h-93.6s-56.9-.2-56.9-.2c1.4-70,3.2-139.9,5.4-209.9l12.2-474Z"/>
    <path class="st2" d="M1756.8,2396.1c1-91.2,5-184.5,7.2-276l9.6-407.9c40.1-.3,80.3-.3,120.4,0l8.2,424.3,4,152.7c1,34.3,2.8,72.9,2.1,107h-13.9s-137.6,0-137.6,0Z"/>
    <path class="st2" d="M2352.1,2396.3c7.7-228.1,14.2-456.3,19.5-684.4l117.9-.2c5,88.3,5.2,175.9,8,264,5.4,140.1,9.2,280.3,11.4,420.5h-18.6c0,.1-138.1.1-138.1.1Z"/>
    <path class="st2" d="M1738.8,2439.5c0-10.9-4-29.8,7.4-33.5,16.4,0,175.1-2.3,180.5,2.2,3.2,2.7,3.9,5.7,4.1,9.7.4,5.9,2,16.9-1.8,21.4l-4.3.3h-186Z"/>
    <path class="st2" d="M2035.2,2439.7c-.3-12.9-4.3-29.4,10.1-33.7,37.2-.8,75.8,0,113.1-.4,12.5,0,54.8-.8,64.7,1.3,5.3,4.7,5.7,28.4,2.6,32.4l-7.7.3h-182.8Z"/>
    <path class="st2" d="M1438.3,2439.5c-.2-11.2-2.4-24.8,4.8-32.3,9.5-.4,20.1-.5,29.6-.3,51.3,1.2,104.5-2,155.6.5.4,7.3,1.8,25.2-.1,31.4l-2.3.9-187.6-.2Z"/>
    <path class="st2" d="M2334.3,2439.9c-.3-10.1-1.3-23.4,1.7-32.9,21.6-.5,182.1-2.4,189.3,1.8,2.6,1.5,4.1,7.7,4.4,10.6.5,4.8,1.1,16.3-1.9,20.1l-193.5.4Z"/>
    <path class="st2" d="M1377.1,2450c77,.3,153.9.1,230.9-.5,80.8-1.9,163.5.6,244.6.4l736.2.4v95.3c-25.6-1.2-56.7-.5-82.6-.5h-149.3s-980.3-.3-980.3-.3c1.1-30.3.5-64.3.5-94.8Z"/>
    <path class="st2" d="M1315.8,2552.7l447.5-.6h620.7s163.9-.2,163.9-.2c34.7,0,69.1,1,103.8,0,0,33.2,1.4,66.4,1,99.6h-444.7c0-.1-892.3-.2-892.3-.2-.2-32.8-.2-65.6,0-98.5Z"/>
    <text/>
  </g>
  <g class="st4">
    <rect class="st2" x="137.6" y="3143.8" width="3693.4" height="738.7"/>
  </g>
  <circle class="st5" cx="3113.7" cy="42847" r=".3"/>
  <text></text>
  <g>
    <path class="st2" d="M3255.5,421660.5h-1.3s-.4,0-.4,0c0,0-.2,0-.2,0,0,0,0,0,0,0,0,0,.3-.2.4-.2l.5-.3c.3-.2.7-.3,1-.5,0,0,.4.2.4.2.3.2.7.3,1,.5.2,0,.3.2.5.2,0,0,0,0,0,0,0,0-.1,0-.2,0h-.4s-1.3,0-1.3,0Z"/>
    <path class="st2" d="M3253.6,421660.6h.8s3,0,3,0v.3s-.8,0-.8,0h-1.6c-.3,0-.6,0-.9,0-.2,0-.3,0-.5,0,0-.1,0-.2,0-.3Z"/>
    <path class="st2" d="M3254.3,421661c-.1,0-.3,0-.4,0,0,0,0,0,0,0,0,0,0,0,0,0,.2,0,.3,0,.5,0,0,0,0,0,0,0Z"/>
    <path class="st2" d="M3255.2,421661c-.1,0-.3,0-.4,0,0,0,0,0,0,0,0,0,0,0,0,0,0,0,.2,0,.3,0,0,0,.1,0,.2,0,0,0,0,0,0,0Z"/>
    <path class="st2" d="M3256.2,421661c-.1,0-.3,0-.5,0,0,0,0,0,0,0,.1,0,.3,0,.5,0,0,0,0,0,0,0Z"/>
    <path class="st2" d="M3257.1,421661c0,0-.3,0-.5,0,0,0,0,0,0,0,0,0,.4,0,.5,0,0,0,0,0,0,0,0,0,0,0,0,0,0,0,0,0,0,0Z"/>
    <path class="st2" d="M3253.8,421663.2c0-.5,0-1,0-1.5,0-.1,0-.3,0-.4,0,0,0-.2,0-.2h0c.1,0,.3,0,.4,0,0,0,0,.2,0,.3v.5s0,.7,0,.7c0,.2,0,.4,0,.7,0,0,0,0,0,0h-.4Z"/>
    <path class="st2" d="M3255.8,421661c0,0,.2,0,.2,0,0,0,0,0,.1,0v1.4c0,.2,0,.5,0,.8h-.3s-.2,0-.2,0c0-.2,0-.4,0-.7v-1.5Z"/>
    <path class="st2" d="M3254.8,421663.2c0-.3,0-.6,0-.9v-1.3c.2,0,.3,0,.4,0v1.4s0,.5,0,.5c0,.1,0,.2,0,.3h0s-.4,0-.4,0Z"/>
    <path class="st2" d="M3256.7,421663.2c0-.7,0-1.5,0-2.2h.4c0,.3,0,.6,0,.8,0,.4,0,.9,0,1.3h0s-.4,0-.4,0Z"/>
    <path class="st2" d="M3254.7,421663.4s0,0,0-.1c0,0,.6,0,.6,0,0,0,0,0,0,0,0,0,0,0,0,0h0s-.6,0-.6,0Z"/>
    <path class="st2" d="M3255.7,421663.4s0,0,0-.1c.1,0,.2,0,.4,0,0,0,.2,0,.2,0,0,0,0,0,0,.1h0s-.6,0-.6,0Z"/>
    <path class="st2" d="M3253.8,421663.4s0,0,0-.1c0,0,0,0,0,0,.2,0,.3,0,.5,0,0,0,0,0,0,.1h0s-.6,0-.6,0Z"/>
    <path class="st2" d="M3256.6,421663.4s0,0,0-.1c0,0,.6,0,.6,0,0,0,0,0,0,0,0,0,0,0,0,0h-.6Z"/>
    <path class="st2" d="M3253.6,421663.4c.2,0,.5,0,.7,0,.3,0,.5,0,.8,0h2.4s0,.3,0,.3c0,0-.2,0-.3,0h-.5s-3.1,0-3.1,0c0,0,0-.2,0-.3Z"/>
    <path class="st2" d="M3253.4,421663.7h1.4s2,0,2,0h.5c.1,0,.2,0,.3,0,0,.1,0,.2,0,.3h-1.4s-2.8,0-2.8,0c0-.1,0-.2,0-.3Z"/>
    <text/>
  </g>
  <g class="st3">
    <rect class="st2" x="3249.6" y="421665.6" width="11.8" height="2.4"/>
  </g>
</svg>