<?xml version="1.0" encoding="UTF-8"?>
<svg id="Livello_1" xmlns="http://www.w3.org/2000/svg" xmlns:xlink="http://www.w3.org/1999/xlink" version="1.1" viewBox="0 0 1000 1000">
  <!-- Generator: Adobe Illustrator 29.5.1, SVG Export Plug-In . SVG Version: 2.1.0 Build 141)  -->
  <defs>
    <style>
      .st0 {
        fill: none;
      }

      .st1 {
        fill: #e3d093;
      }

      .st2, .st3 {
        fill: #6a9597;
      }

      .st3 {
        font-family: Rubik-Regular, Rubik;
        font-size: 154.9px;
      }

      .st4 {
        clip-path: url(#clippath);
      }

      .st5 {
        fill: #e3d094;
      }
    </style>
    <path id="path" d="M87.9,537C65.1,309.5,231.1,106.6,458.6,83.9c227.5-22.8,430.4,143.2,453.1,370.7,22.8,227.5-143.2,430.4-370.7,453.1-227.5,22.8-430.4-143.2-453.1-370.7Z"/>
    <clipPath id="clippath">
      <rect class="st0" x="112.3" y="821.2" width="775.4" height="142"/>
    </clipPath>
  </defs>
  <circle class="st5" cx="500" cy="495.8" r="445"/>
  <text>
    <textPath startOffset="87%" xlink:href="#path"><tspan class="st3"><tspan x="0" y="0">FACIT•IN•MANTUA</tspan></tspan>
    </textPath></text>
  <g>
    <path class="st2" d="M498.5,398.9h-99.9s-30.7,0-30.7,0c-3.9,0-12,.2-15.4-.1-.3-.8-.2-1,0-2,1.1-1.9,26.1-13.8,30.3-15.9l39.4-20.1c25-12.7,51.2-26.6,76.3-38.6,3.2-.3,27,12.9,31.8,15.2,26.1,12.8,52,25.9,77.8,39.2,11.7,6,23.8,11.6,35.4,17.9,1.5.8.9,3,0,4.2-2.6.4-11.1.2-14.1.1h-28.9s-101.9,0-101.9,0Z"/>
    <path class="st2" d="M354,401.2l59.6-.2h230.2c0,.1,0,24.4,0,24.4l-59.7.2h-125.6c-22.7,0-45.4,0-68.2,0-11.9,0-24.4.3-36.3,0-.2-8.1-.2-16.3,0-24.4Z"/>
    <path class="st2" d="M407.7,436.4c-11.1.2-22.5-.2-33.6,0-1.4,0-4,.2-4.8-1.2-1.4-2.3-.6-5,1.3-6.6,11.6-.7,24.3,0,36,0,3.9,0,4.6,5.8,1.1,7.7Z"/>
    <path class="st2" d="M480.6,436.5c-11.1,0-22.2,0-33.3,0-1.2,0-4-.2-4.7-1.4-1.3-2.3,0-4.9,1.9-6.3,6.8-.4,14.2,0,21-.1,4.7,0,10.2-.2,14.8.3,2.8.3,3.8,5.6.2,7.5Z"/>
    <path class="st2" d="M554.2,436.2c-11.4.7-23.9-.1-35.4,0-4.3,0-4.5-4.8-1.6-7.5,11.3-.7,23.6,0,35,0,4.7,0,5,4.8,2,7.4Z"/>
    <path class="st2" d="M626.7,436.4c-7.5,0-26.1,0-34.8-.1-1.6,0-4.9-5.7.8-7.5,4.8-.2,32.1-.6,34.8.4.9.3,1.3.8,1.6,1.7.4,1.1.2,3.1-.4,4.1-.5.8-1.1,1.1-2,1.4Z"/>
    <path class="st2" d="M370.2,606.5c.6-39.2,1.4-78.4,2.5-117.5.2-11.3.5-22.5.8-33.8,0-2.8,0-14.6.6-16.8l.7-.3c9.7,0,19.3,0,29,.1.5,5.3.4,14.5.6,20.1l1,41,1.4,56.3c.6,16.9.9,33.8,1.1,50.7-1.4,0-2.9.1-4.3.2h-33.2Z"/>
    <path class="st2" d="M522,438.3c6.2-.2,13,0,19.2-.1,3.2,0,6.3,0,9.5,0l2.7,110.4c.4,18.8,1.4,39.2,1.2,57.8h-23s-14,0-14,0c.4-17.2.8-34.4,1.3-51.6l3-116.5Z"/>
    <path class="st2" d="M443.9,606.5c.3-22.4,1.2-45.4,1.8-67.9l2.4-100.3c9.9,0,19.7,0,29.6,0l2,104.3,1,37.5c.3,8.4.7,17.9.5,26.3h-3.4s-33.8,0-33.8,0Z"/>
    <path class="st2" d="M590.2,606.6c1.9-56.1,3.5-112.2,4.8-168.3h29c1.2,21.7,1.3,43.2,2,64.9,1.3,34.4,2.3,68.9,2.8,103.4h-4.6s-33.9,0-33.9,0Z"/>
    <path class="st2" d="M439.4,617.2c0-2.7-1-7.3,1.8-8.2,4,0,43.1-.6,44.4.6.8.7.9,1.4,1,2.4,0,1.4.5,4.2-.5,5.3h-1.1c0,0-45.7,0-45.7,0Z"/>
    <path class="st2" d="M512.3,617.2c0-3.2-1.1-7.2,2.5-8.3,9.1-.2,18.6,0,27.8,0,3.1,0,13.5-.2,15.9.3,1.3,1.2,1.4,7,.6,8h-1.9c0,0-44.9,0-44.9,0Z"/>
    <path class="st2" d="M365.6,617.2c0-2.8-.6-6.1,1.2-7.9,2.3-.1,5-.1,7.3,0,12.6.3,25.7-.5,38.2.1,0,1.8.4,6.2,0,7.7l-.6.2h-46.1Z"/>
    <path class="st2" d="M585.8,617.3c0-2.5-.3-5.7.4-8.1,5.3-.1,44.8-.6,46.5.4.6.4,1,1.9,1.1,2.6.1,1.2.3,4-.5,4.9h-47.6Z"/>
    <path class="st2" d="M350.5,619.8c18.9,0,37.8,0,56.8-.1,19.9-.5,40.2.1,60.1,0h181c0,0,0,23.5,0,23.5-6.3-.3-13.9-.1-20.3-.1h-36.7s-241,0-241,0c.3-7.4.1-15.8.1-23.3Z"/>
    <path class="st2" d="M335.5,645l110-.2h152.6s40.3,0,40.3,0c8.5,0,17,.2,25.5,0,0,8.2.4,16.3.3,24.5h-109.3s-219.4,0-219.4,0c0-8.1,0-16.1,0-24.2Z"/>
    <text/>
  </g>
  <g class="st4">
    <g>
      <path class="st2" d="M945,480.9c-6.8,238-212.2,451.7-445,445-246.4-7.1-444.4-204.1-445-445-.6-245.8,199.2-445,445-445s452,199.3,445,445Z"/>
      <path class="st1" d="M510.6,926.2c-3.5,0-7.1,0-10.6-.2-60.3-1.7-118.6-14.7-173.4-38.7-26.4-11.5-51.8-25.6-75.6-41.8-23.5-16.1-45.7-34.4-65.8-54.4-20.1-20.1-38.4-42.1-54.3-65.4-16-23.5-29.8-48.7-41-74.7-23.2-54-35-111.3-35.1-170.2-.1-59.9,11.5-118.1,34.6-172.9,11.1-26.3,24.8-51.7,40.9-75.5,15.9-23.5,34.1-45.7,54.2-65.8,20.2-20.2,42.4-38.6,66-54.6,23.8-16.1,49.3-30,75.8-41.2,55-23.3,113.5-35.1,173.7-35.1s62,3.2,92.2,9.5c29.5,6.1,58.4,15.3,86.1,27.2,27.2,11.7,53.4,26.2,77.8,43,24.3,16.7,46.9,35.8,67.3,56.9,19.5,20.1,37.1,42,52.3,65.1,15.4,23.5,28.5,48.5,39,74.2,21.8,53.9,32,110.8,30.4,169.2h-.1s.1,0,.1,0c-.8,29.2-4.7,58.7-11.5,87.7-6.6,28.2-16.1,56.2-28.1,83.2-11.8,26.5-26.2,52.2-42.8,76.3-16.4,24-35,46.6-55.4,67.1-20.4,20.7-42.6,39.4-66,55.7-23.7,16.5-48.8,30.6-74.6,41.9-26.4,11.6-53.7,20.2-81.1,25.8-24.8,5-50.1,7.6-75.1,7.6ZM500,36.1c-60.2,0-118.6,11.8-173.6,35.1-26.4,11.2-51.9,25-75.8,41.2-23.6,16-45.8,34.3-66,54.5-20.1,20.1-38.3,42.3-54.2,65.8-16,23.8-29.8,49.1-40.8,75.5-23.1,54.8-34.7,112.9-34.6,172.8.1,58.9,11.9,116.1,35.1,170.1,11.1,26,24.9,51.1,41,74.6,15.9,23.3,34.1,45.3,54.2,65.4,20.1,20.1,42.2,38.4,65.7,54.4,23.7,16.2,49.1,30.2,75.5,41.7,54.8,23.9,113.1,36.9,173.3,38.6,28.5.8,57.3-1.7,85.7-7.4,27.4-5.6,54.7-14.2,81.1-25.8,25.7-11.3,50.8-25.3,74.5-41.9,23.4-16.3,45.5-35,65.9-55.6,20.3-20.6,38.9-43.1,55.3-67.1,16.5-24.1,30.9-49.8,42.7-76.3,12-27,21.5-54.9,28.1-83.1,6.8-29,10.7-58.5,11.5-87.7,1.7-58.3-8.6-115.2-30.4-169.1-10.4-25.8-23.5-50.7-38.9-74.2-15.2-23.2-32.8-45.1-52.3-65.1-20.4-21-43.1-40.1-67.3-56.8-24.4-16.8-50.6-31.3-77.8-43-27.7-11.9-56.6-21.1-86.1-27.2-30.2-6.3-61.2-9.5-92.2-9.5Z"/>
    </g>
  </g>
</svg>