<?xml version="1.0" encoding="UTF-8"?>
<svg id="Livello_1" xmlns="http://www.w3.org/2000/svg" version="1.1" viewBox="0 0 1000 1000">
  <!-- Generator: Adobe Illustrator 29.5.1, SVG Export Plug-In . SVG Version: 2.1.0 Build 141)  -->
  <defs>
    <style>
      .st0 {
        fill: #e1cf92;
      }
    </style>
  </defs>
  <path class="st0" d="M578.4,370.6c-.7,3.5-4.4,4.2-6,7.9-3.3-3.2-5.7-5.5-9.9-9.8,2.6,9,7.8,15.1,4,23.5,0,0-1.1,1.1-2.6,2.6-.7-8.9-3.8-16.2-10.3-22.1-1,.9-2,1.9-3.5,3.4,2.9,6,5.9,12.2,9.4,19.3-1.8.6-3.8,1.3-5.9,2-2.1,1.2-2.6-4.2-6.7-2.9-1.7,2.8-.9,4.9,1.1,7.5,1.3,1.7-.5,4.8,1.2,7.6,3.6-3.7,7.1-7.5,12.2-8.8,2.5.9,3.9,2.6,4.5,6.1-5.3-.5-8.5,2.4-11.1,6.2-.3,1.7.6,3.6-1,5-2.7-2.7-7.2-2.8-8.4-6.4-3.5-.3-4.3,2-5.7,3.3-1.4,3.6,2.1,5.8,2.4,8.9,2.9.7,5,3.7,9.8,2.7,2.8-2.7,6.2-6.9,10.6-8.3,2.1-3.1-.4-6.3,2.2-8.9,3.1.7,5.9,3.3,9.4,1.6.7,2.9-1,5.4,1.4,7.2,1.5-2.3,1.7-4.4-1.4-7.2.2-.3-.2-1.6.3-2.4.7-1.2,2-2.1,3-3.1,3.1-1,4.5,2.8,7.2,2.5,1.3,1.9-.7,4.5,2.2,6.3.7-4.8.1-9.9,4.2-13.8,7.6,3.7,8.7,11.7,13.1,18.4v-15.2c-.8-1.4-4.2-.6-5.1-2.6-1.6-2.8-.7-5.3-.7-5.6,1.6-2.8,2.5-4.3,3-5.2,2.2-.5,2.8.5,3.6,1.1,2.8,2.2,2.1,7,6.1,7.8v11.7c6.6,3.1,11.2,9,16.4,13.8,1.8,0,3.3,0,3.2-2.2,2.1-1,4.2-2,6.1-3,1.8-4.4-1.6-6.4-4-8.9,0-3.8-1-8,3.9-9.8,2.2-.4,2.8,1.8,4.6,2.8v10.3c2.6,5.5,7.1,3.9,10.4,4.2,1,4,1,7.2-1.2,10,3.1,4.4,9.3,2.3,12.6,6.8v10.2c4.6,2.9,4.8,10,10.8,11.9.5,2.1-2.8,2.4-1.9,5.4,1,1.1,2.6,2.9,4,4.5.2,1.5-.5,2.2-1,3.1-1.3,2.6-4.8,1.3-6.6,4.9-1.2-2.2-2.1-3.9-2.6-4.7h-10.9c-.3,2.8,1.8,1.3,2.7,1.9,1.1,2,2.2,4.1,3.4,6.1-1.5,3.7-4.7,7.6,1.2,10.8,1.2,0,1.9-2.6,4.8-1.4.9,3.9.7,8.9,4,12.6h3.1c-1.1,3.1,2.6,4.8,2.2,7.8-.3,2.8,0,5.7,0,8.5,1.4,1.4,2.7,2.7,4.1,4.1v4.7c-1.7,1.5-3.6.6-5.5.8-1.6-3.2-.2-6.9-.9-10-2-1.3-3.8-.7-6.3-.6v11c-7.2-2.2-11.5,2.9-16.9,4.5-2.6,4.5,1.8,6.6,4.5,10.1-4.7.4-7.2-3.3-10.7-2.1-1.2-2.7-1.5-5.8-4.9-6.4-.6.2-1.4.2-1.9.6-4.6,3.8-3.1,7.9-.3,12.4-3.4,3.6-2.7,8-2,12.5,2,.6,3.6,1,4-1.7.5-3.9,4.2-4.6,6.8-5.5,4.1-1.3,5.9-4.1,7.3-7.4,2.9-.6,3.6,2.2,5.6,3.1-2.8,1.8-2.6,4.3-2.2,6.9,2.2,1.8,4.8.4,7.6,1,1.4,1.6,3,3.5,4.8,5.5-.4.4-1,1.2-1.7,1.9.9,1.3,2.9,2.2,1.9,4.6-2.5,1.4-5.2.9-8,.5-.4,1.3-1.6-1.6-.4-1,.2.1,1-.9,1.5-1.5-1.8-1.4-3.6-2.9-5.4-4.4-1.4-2.1-4.6-.4-6.3-3.5-1.5,1.8-1.4,4.2-.7,5.2,1.8,2.6,4.4,4.6,6.5,6.8-1.1,2.5-2.1,4.7-3.3,7.4-5.1-1-9.6,1.5-14,4.4-2.5-1.8-5.8-2-7.1-3.5-1.4.9-3,1.8-3.9,2.4-.4,3,2,3.5,2.8,5.4,7.6-.5,15.2-.4,20.9,4.4,4.2,0,6.1-2.6,8.6-3.3.7-4.1-3.1-2.5-4.1-4.3,3.3-5.1,12.1-2.7,13-9.8,2.4,0,3.8,0,5.3,0,1.9,1.2.5,4.4,3.2,5.3-3.7,1.4-6.3,3.9-8.6,6.9-.5,2.3,1.4,3.1,2.9,4.8,2.3-1.2,4.7-2.5,7.1-3.7,1.2.7,1.1,2.1.7,2.8-1.3,2.1-3.3,3.5-6,3.9.9,2.4,2.8,4.6,1.1,8-3.3.8-8.6-1.5-10.5,5.4,3.1,9.2,12.2,16,15.4,26.1v6.4c1.4,2.6,4.3,3.2,6.5,4.6.8,3.1-3.7,5.7-6.6,5.3-3.2-.4-3.6-5.8-7.8-4.1-1.7,1.5,0,3.5-.9,5,2.5,2.6,5.7.2,9,2.1v8.5c3.2-3.1,1.3-6.1,2.6-9.3,7-1.1,10,5.1,14.8,7.2-.5,3.7-2.8,4.6-3.9,6.1,1.7,1.5,3.5,3,5.8,4.9,1-.4,4.6-.1,7.3,1.6-3.4,3.1-8.5,3.2-11.5,7.3,3.1,1.7,4,5.4,6.1,7.6,4.7-1.1.9-5,3.1-6.3,2.5,2.5,4.9,5,8.6,8.9,1,2.4-2.6,4.4-4.4,6.5v9.7c2.5,1.3,3.6-.2,4.9-1.6,1,1,2,1.9,3.1,3v16.8c4.6,5.5,8.1,11.1,8.9,17.8-1.8,2.3-4.4.4-6.4,1.7v7.4c3.8.7,5.8,3.8,8.3,6.1-2.4,2.1-2.9,4.6-1.4,7.3,2.3,1.1,3.4-.4,4.4-1.6,1.3,1.1,2.5,2.2,3.4,3,.5,2.8-1.7,3.5-2.7,5-1.7.3-2.2-2.2-4.3-1.9-1.3.3-2,3.6-4,1-1.1-1.4-2.6-.9-4-.8-2.2,0-2.7-2.1-4.2-2.9.6-2.4,3.8-3,4-5.6,0-2.2-6.9-5.4-13.9-6.7q-1.2,6.1.9,11.5c-1.7,3.1-4.2,4.7-7.9,3.3-2.8,7.3,2.7,8.7,7,10.8,2.9-1.4,3.1-4.6,3.4-7.6,1.7-1.2,3.5-.5,5.4-.5.4,1.2.9,2.4,1.3,3.7,3,1.5,5.3-.1,7.6-1.7,2.1.9,4.2,1.8,6.8,3-1.1,6.4,6.5,9.1,6.7,15.3,5.7,3.3,6.4,2.4,13,21.4-.5,2.5-3,1-4.2,2.4-1.3,1.7-3.1,2.9-4.3,4q-1.1,7.2-9.2,9c3.7,2.4,7.2.4,10.4,1.6.5-1.6,1-2.8,1.7-5,3.8,4.4,9.5,6.3,12.2,11.8-.1,3.1.9,7.2-.7,9.2-2.7,3.6.7,7-.4,8.9-1.8,3.3-.5,6.3-1.2,9.3-2.9-.9-4.5,1.1-6.4,3.3.1,3.4-1.2,7.4,3.4,9.5,1.7-1.7,3.5-3.5,5.2-5.2.9-3-.8-5.3-2.2-7.6,2.8,1,4.3-2,7.6-2.2,1.3,1.8,2.9,4.1,5.4,7.6,0-1-.5.5,0,1.1,3.5,4.3,4.5,9.7,6.9,14.4.9,1.8,4.1,2.6,3.7,4.9-.9,5.1,4.3,9.1,2,13.8,1.9,2.6,5.3,3.7,4.6,7.3-.5,2.7,3.5,3.8,2.6,5.8-1.2,4.7-4.5,6-6.7,8.6-3.2-2.3-2.5-6.8-6.2-7.1-1.9-.4-2.6,1.2-3.7,2-2.2-1.6-.9-3.7-.8-5.6,1.3-1.3,4.7-.1,4-3.6-1.2-3.2-3.8-.3-5.4-2-1.5,3.3-2.7,6.1-4.1,9.2-3.2-3.1-6.7-5.5-11.3-6.9-2.5-3.3-2.4-7.9-3.7-12-1.2-3.8-3.7-7.4-7.1-9.2-2.3-.4-2.9,1.2-4,2-2-1.5-3.5-3.3-3.8-6.1-2.4,1.1-4.6,2.8-7.4,1.5-1.4-1.9-.4-4.1-.7-6.1,3-1.1,4.7,2.9,7.8,2,2.7-5-.3-8.9-2.6-12.9-2.8-.4-3.5,2.1-5.1,3.3v7.5c-1.1,0-2.7.5-3.2,0-2.7-3.2-5.7-5.1-10.2-4.4-1,.2-2.2-1.5-2.9-1.9-2.3-2.9.1-6.1-1.9-8.5-1.8,1.9-1.7,5.2-5,6-2.5-1.9-3.4-5.3-5-8.2-.2-2.9,2.4-1.8,3.6-2.7,1.2-.8,2.3-1.7,2.7-2.1.5-4.4-2.6-4.6-3.6-7.3-3.9,3.1-4,7.2-5.7,9.6-5.7.8-5-4.9-8.4-6.8-3-1.6-7.2-.3-9.3-3.9-.9-1.6-2.8-1.8-4.4-2.5-5.8-2.6-10.4-6.6-12-13.8.7-3.3,4.1-6.9,1.9-11.2-.9-1.1-1.9-.6-3-.5-2,2,1.5,1.8,1.8,1.3-1,5.2-3.7,7.8-2.8,11.5h-5.2c-4.1-3.1-7.4-7-8.7-9.8-2.8-4.4-6.2-1.6-7.8-4.2-1.4-2.2-3.6-3.1-6.4-3.9v-9.5c-5.1,0-9.3,8-14.8.7-1.6-2.6.9-6.5-.9-9.4-2.4-1.1-3.5.5-4.8,1.6-1,.9-1.6,2.5-3.5,2.3-3.4,0-3.5-5.8-7.6-4.2-.7-3-3.2-4.9-3.1-7.8-2.3-2.4-5.6.2-7.8-1.4-3.2-2.6-3.9-6.5-5.7-10.2-1.5-.1-3.2-.2-5-.4-5-6.3-11.7-10.7-18.8-14.4-3.5-1.9-6.3-3.7-8.1-7.4-1.5-3.1-3.7-6-7.7-6.4-1.2-2.7-2.5-5.4-3.7-8.1-4.6-1-8.9-.6-12.7,2.2-2.5-3.7-3.9-4.7-9.3-6.9-1.7-1.9-1.4-5.4-4.6-6.2-.5,1.2-1,2.5-1.5,3.7-2.7,1.4-3.6-1.2-5.2-2.3,0-3.1,5.4-3.7,3.5-7.6-4-2-4.7,2.1-7.6,3.8-1-1.6-2.1-3.3-3.4-5.4-2.8,7.3-8.8,10.4-12.3,15.2-8,2.4-15,5.7-18.3,13.7-2.4.1-4.8.3-7.6.4v9.8c-3.2,0-4.7,3.5-8,2.8-.4-1.1-.8-2.4-1.3-3.6-.9-.9-1.9-.6-3-.4-2.1,1.5.3,4.2-1.9,6.2h-9.5c-1.6,8.3,6.1,12,7.8,18.9-.4.4-1.3,1.4-2.6,2.8-4.4-3.9-5.8-9.5-8.1-14.5-2.2-1.5-4.8,0-6.9-.8-2.5,1.6-3.5,3.8-4.2,6.6h-6.9c-2.4,2.7,1.3,7.8-4.7,8.3-1.9.4-4.3.9-6.7,0,0-3.1,5.4-3.7,3.7-7.2-1.2-1.3-2.3-1.1-3.3-.8-3,1.2-2.6,4.8-4.6,6.9,1.1,2.8,3.3,5.7-.2,8.7-3,2.6-5.6,1.7-8.8-1.1-.5,4.1.4,8.1-2.4,11.2-7.1,0-14.3.9-23-3.1,2.1,2.6,2.6,3.3,3.4,4.2-7.5,2.8-10.5,11.5-18.7,13.7-2-2,.3-5.2-1.1-7.7-1.6-1.3-3.4-.4-5.2-.6-1.7,2.6.3,7.3-4.2,8.3-.8-.7-1.6-1.3-2.3-1.9-6.9.6-5.9,9.2-11.5,10.8,0-1.3-.2-2.6-.2-3.6-1.6-1-2.8-1.1-3.9,0,.9,1.7,2,3.2,4.1,3.5-.3,1.3.7,2.9-.8,4-1.1.8-2.1,2-3.3,2.4-1.2.4-2.7,0-3.9,0-.6-1.8-1.1-3-1.5-4.3-4.2,2.5-4,6.3-3.2,10,1.4,1.4,2.6,2.6,3.9,3.9-.8,1.4-2.9,2.3-2,4.4-4.5,2.9-9.3,4.3-14.6,2.8-.5-2.1,3-3,1.2-5.4-.7-1.2-1.9-.5-2.8-.8-2.3,1.5-.3,4.1-1.6,5.8-.8,1.1-2.4,1-2.8.6-3.2-3.3-6.1-2.8-9.2.8-1.5,2.1.1,5.1-.7,7.9-3.3-1.7-6.2-3.1-9.6-4.8-1.8,3.8-2.1,8-.5,10.4,2.3,3.6,1.6,6.4,1.2,9.5-4.6,1.1-5-4.4-9.5-4.1-1.8,2.3-.2,6.5-3.4,8.2,1.4,3.1,4.1,5.6,1.2,9.3-3.8-1.5-7.8-3-11.6-4-.6-2,.8-3.9-1.5-4.7-1.4,1.5-1.3,2.9,1.5,4.7.6,3.5-1.6,6.7-3.2,10-2.4.1-4.8.3-7.5.4-.1,2.7-.3,5.2-.3,6.5-3.1,3.1-5.7,5.7-8.5,8.5-2,.2-2.9-2-4.3-3.4.7-1.2,1.8-1,3.4-1,1.8-3.8-.7-8.7,4.3-11.8-3.9-1.3-5.6,3-8-.2.3-5.1,4.4-5.2,8.5-5.8v-15.6c2.8-2.3,5.9-.4,8.6-1.5v-11.9c-1.3-.5-2.5-1-3.7-1.5,1.1-3.1,3.4-4,6.9-3.5,2.7,1.1,4.1,6,10.2,3.5,1.6-.9-2.1-6,2.1-7,3.4-2.3,7.3.5,10.5-1.6,2-4.5-3.5-7.4-1.6-12h-6c-2,2.4.4,5.6-1.5,8-2.4-.9-3.8-2.5-3.8-5.2-3.5-2-7.7-2.8-10.8-6.6,1.4-4.8,6.1-9,4.3-14.8,8.1-4,15.8-7.9,22.3-11.1,2.3-2.8,1.4-4.6,1.6-6.3-1-1-2-2-3.1-3.1-.8,2.9-3.4,4.9-3.4,8-6.9,0-10.1-2.8-10.7-9.3-.6-6.7.7-12.9,3.9-18.9,6.9-13.1,9.1-27.9,15.3-41.2-.7-8.8,4-16.4,5.6-24.8,1.5-7.8,4.7-15.3,7.7-22.7,2.6-6.5,3.8-13.6,9.4-18.9,2.7-2.6,5-6.9,5.3-10.6.3-3.8,3-5.3,4.5-7.8-.9-1-2.3-1.8-1.9-4.1,5.9-1.5,8-7.2,12-12.7,1.5,5.2.4,9.6.9,14,.5,4.5-.7,8.8,1.3,13.5,1.6,3.8,4,7.8,3.4,12.3,1.6,0,2.3-.1,3-.2,2.5-2.5-.8-6.5,2.3-8.8.3-.2.5-.5.8-.8-1.8-1.5-2.6-4.5-5.5-3.3-3-5.4,1.7-7.3,3.7-10.3-1.8-2.7-2-6-4.5-8.1v-9.2c-3.9.4-5.4-3.6-6.6-4.3-5.9-1.9-7.2,2-9.8,3.5-1.1-.7-1.4-2.2-.9-2.8,4.1-4.7,8.2-9.5,14.2-12,2.3,1.2,2.8,3.7,3.7,5.9,1.5.6,2.7.6,4-1.4-2.6-4.4-3.8-9.6-5.5-14.7-1.5-4.4-3-9.9-7.3-12.3,2-6.7,4.2-12.7,3.9-19.4-.2-4.5-1.1-9.2,2.3-12.6-1.2-2.9-3.3-1.5-5.3-2.3-2.4,2.4-4.8,4.8-6.8,6.8-3.6.2-3.7-2.7-6.8-3.4,3.9-4.2,7-7.5,10-10.9.6-2.2-1.3-3.1-2.4-4.4-.5-1-.9-.9-1.6,0-1.7,2.2-3.9,3.9-6.7,4.5-.9,2.3,1,3.2,2,4.5-1.4,1.8-3.3.6-5.7,1.4-1.1-4.1-.6-9.9-7.3-9,1.5-4.4-4.1-5.4-4.4-8.8,1.1-2.2,2.2-4.2,3.3-6.3,2.5,1.4,3.2,4.2,4.7,6.6,1.6-.7,3.6.7,4.9-1.1,1.6-5.8-3.5-10.4-2-15.4-1.8-1.5-4.6-.2-4.4-3.1h13.8c3.1,1.9,4.6,5.5,8.9,6.9.6-1.9,3.2-2.2,3.5-5.8-2.4-1.9-4.9-4.5-4.8-8.8,0-1.2-2.4-4.6-5.7-2.5-1.3,1.7.7,4.3-1.5,5.8-2.4-1.9-3.9-5.2-8.9-4-1.3,2.1-5.2,3.1-5.3,8.4-4.9.6-3.6,7.1-7.8,8.3-.5-1.2-1-2.4-1.5-3.8-1.2-.4-2.8.1-3.9-2.3-1.1-.6,2.3-3.8-2.4-4.6-2.5,2.7-7.4,4.3-5.4,10.9,4.8-1.1,5.3,5.9,9.2,5.2,4.2,4.6,3,9.6,3.2,14.4-3.1,1-4.8-2.6-8.3-2.2-.9-7-6.3-12.3-7.6-19.3-.9,0-1.8-.4-2.3,0-1.4,1-2.5,2.3-4.5,4.1,3.9,3.1,9.4,4.3,8.3,11.3.3-.3-.7.7-1.9,1.9-2.4-2.6-4.9-5.2-7.5-8.1v-3.8c-.6-.4-1.2-1.1-1.7-1.1-5.7.5-10-2-13.9-5.8-2.2-2.2-5.3-3.8-7.2-5.7-5.1-5-11.4-8.3-16.2-13.4.8-2.2,6.2.1,3.8-5-1.8-1.5-5.3-1.3-6.6-.3-6.5,5-10-.8-14-2.8-2.3-3.5,3.7-4.1.8-7.6-2-1-5-2.5-7.9-4,0-4.1,5.5-4.9,4.7-9.2,2-.2,3.7-.4,5.4-.6,1.7-1.4.4-3.4.9-5.2-2.4-1.2-4.7-2.4-6.9-3.4-3.2,1.3-1.1,4-2,5.8-.6.3-1.1.9-1.7.9-4.2,0-8.8-.6-12,2.3-2.9,2.7-5.8,1.8-8.9,1.9-.2-4.3-4.6-4.4-6.9-6.6-2.6-2.5-2.3-6.9-7.1-8.4h-3.1c-2.6-2.6-5.2-5.1-7.7-7.6v-6.5c-1.4-1.9-3.4-.6-5.6-1.4-1.9,2.3-3.9,4.7-6,7.2-2.2-3.4-6.8-4.2-5.7-8.6-4-1.1-8.2,1.1-10.7-4.3v-7.4c-1.5-1.8-2.4-2.9-3-3.7-2.8-1-3.5,1.4-5.8,2.2-2.5-2.8-6.3-2.6-9-2.4-5.4-2.5-3.3-6.7-4.2-10.4h-9.4c-3.9-7.1-11.7-8.6-17.4-13.1-7.7-6-17.3-9.3-24.5-16.3-7.2-7-16.7-10.7-24.2-17.4-2.6-2.3-5.8-4.2-8.2-7.4,7.7,1,15.4-2.8,22.9,1.6,1.9,1.1,5.5,1.1,7.4,0,5.4-3.4,10.9-1.3,16-2,1.7,1.7,3,3,4.3,4.3,1.5-1.4,3-2.8,4.5-4.2h32.4c1.1,1.1,2.3,2,3,3.1.5.8.4,1.9.6,2.9,3.7-.6,3.3-4,4.9-6,4,6.7,10.1-4,14.8,2.2-2.4,3.1-6.7,3-9.2,5.4-.4,2.3.4,3.4,2.8,3.2,1.4,0,2.5-.5,3.9-1.2,3.2-1.7,6.7-2,9.5,1.1,2.3-1.5.2-4.1,1.7-6.1,3.5-1.4,5,1.1,5.8,3.8,1.1,3.9,3.8,4.7,7.7,4.4,1.1-3.5,3.6-6.3,6.5-8.5,3.3-1.3,5.3,1.4,7.9,2.1,2-.3,2.9-3.6,5.7-1.6,2.6,3.4-5.5,5.6-.4,9.6,1.8.3,3.9,3.6,8.2,2.6,1.2-1.6,2.8-3.9,4.4-6.2.4.4.7.7,1.1,1.1v-6.6c1-.9,2.1-1.9,3.8-3.5,2.5,3.1,5.2,6.4,6.5,8,6.1,2.7,3.7-6.2,8.6-2.9.2.6.7,1.3.6,1.8-.2,1-.9,1.8-1.6,3.1,1,1.8,3.4,4.1-.3,6.2,1.1,1.7,2,3.6,4.5,3.5,3.3-3.4,4.6-7.4,3.8-11.9,2.4-2.1,5-.7,7.5-1.1,2.1-1.1,3-3.9,5.7-4.3.7.3,1.6.4,1.8.9,2.5,5.7,2.5,5.7.3,14.8-2.9-2.3-5.2-4.7-7.6-7.1-1.1,1.8-3.3,2.3-3.2,4.4-.3,1.7,1.6,2,1.9,2.8-1,2.9-3.5,3.5-5.7,4.2-2,4.7-4.2,9.3-1.7,14.5h4.4c3.9-4,7.9-8,11.9-11.9v-7c2.8-.6,3.3-3.9,5.6-4.6,2.5,3.3-.2,5.7-1.3,8.3.5,2.3,2.1,3.5,4.1,4.4,4.3,0,5.6-7.8,2.5-14.6-.4-1.8,1.3-2.4,1.8-3.6.5-1.2.3-2.8.4-4.7,2.1-.9,4.5-3.1,6.8-2.9,10.5.8,21.2-2.7,31.4,2,3.1,1.4,5-2,8.2-2.2,2.6,2.9,5.4,6.1,7.7,8.7h5.3c2-2.8,1.5-5.3-1.1-7.4.5-1.1,1.4-1.1,2.5-1.2,3.4-.3,5.9,2,8.2,3.6,2.8,2,5.7,3.5,8.7,5.1q-2.9,6.2,2.1,10.9c2.7-.4,3.6-3.3,5.8-4.4,1.6.4,3.6-.8,4.9.9.9,2.3-.7,3.3-2,4.6.7,1,2.5,1.5,2.7,1,2.3-5.4,7.1-8,11.6-11,2.7-1.8,3.6-4.3,3-7.4,4.7-3.5,8.4.8,12.6,1.6.2,3.6.8,7,5.2,8.7,3-2.3.2-8.2,5.2-8.8.5.5,1,1,2,2,1.9-5,7.3-5.8,10.9-6.2,6.3-.7,7.7-3.7,7.5-9.1,6.8-2.1,9.9-8.9,16.1-10.3,2.2-9.4,3.3-11.1,10.4-15.5-3.3-2.7-6.1-5.2-9.7-4.5-1.9,2-3.3,3.4-6.3,6.5.1-11.6,2.7-19.6,9.8-25.9,2.2,2.2,4.2,4.2,6.3,6.3.4-.4,1.3-.9,1.2-1.2-.5-3.4.2-6.6-1.4-10.2-2.6-6.2-.7-12.9,3.8-18.1-3.3-5.5-3.2-10.6-.2-15.8,3-5.4,4.8-11.3,4.4-17.7-.4-6.7,3.5-12.3,5.1-18.4,1.7-6.5,3.8-13.3,9.5-16.2,1.2-3.5-2.1-3.8-1.8-5.5.9-4.8,4.8-4.7,8.7-5.3.5-7.6-4.3-14.8-1.4-22.9.3-.3,1.1-1.1,1.9-1.9,3.3,1.8,6.7,2.4,10.3.6-1-6.7-5-12.8-4.2-19.7.8-1.3,1.9-1,3-1.1,2.9,2-2,2.3-1.5,2.8,1.5,3.8,2.6,6.2,6.1,5.8,2.8-2.6,0-3.8-1.1-5.3.7-.8,1.4-1.6,2.2-2.4-1.2-5.1-6.5-9.2-3.8-15.8,1.5,0,3.2-.2,4.9-.3,2.3-2.3,4.6-4.6,6.9-6.9-.7-3.8-2.9-6.6-5.6-8.9v-9.6c3.9.3,3.5,3.8,5,6,1-.9,2-1.9,3-2.8-3-3.7-1.3-7.8-2-12.5,5.2.4,7.4,3.2,8.8,6.8.8,2.2,2.7,3.2,4.4,5.3v5.8c1.1,2.6,3.4.6,4.2,3.3v8.2c1.2.9,2.7,1.9,4.1,3,1.9,1.9-1.6,5.7,3,6.9,1.1-2.7,4.2-4.4,3.8-9.4-2.8-3.1-4.4-8.2-8.6-11.3v-7.7c4.1-5.6,4.5-6.2,4.1-7.8-.9-1.7-3.5,0-4.1-2.2,0-1,0-2-.7-2.9,3.6-.7,6.9.9,9.3-1.1.3-3.2-1.9-4-3.3-5.4-1.8,1.8-3.6,3.5-6,6.5-1.5-.3-1.9,2-3.8,3,3.2,2.6,5.7,5.4,4.5,9.8-1.1,0-2.1,0-3.2,0-2.7-5.9-3.9-12.8-11.9-16.1-1.4-1.2,2.1-5.5-2.3-6.2,1.4-3.3,6.2.8,6.6-3.7,2.4-2.8,4.7-5.6,7.1-8.5,1.2.7,2.3,1.3,4,2.4,2.3-3.4,4.7-6.9,7.4-10.9,2-.9,4.8-2.2,7.4-3.3.8-4.9-1.2-7.5-5.6-8-2-2.8.5-6-1.7-8.3-1.3.4-1.7,2.4-3.4,2,.3-1.8-1.6-2.1-2.2-3.7-.3-3.7,3.9-5,5.2-8.4.8-2.2,6.6-2.1,6.9-7.5,1,2.2,2,4.4,3,6.6,1.5,3.4,8.3,8.2,1.8,13.2,1,1.3,1.7,2.1,2.7,3.4-1.6,1.1-3.3,2.3-5.5,3.8,8,3.7,7,12.4,12.3,16.4-.8,1.8-1.6,2.3-3.7,2-1.3-2.6-2.8-5.7-4.3-8.6-4.2.5-4.9,4.3-8.7,5.8,3.7,3.9,5.3,8.4,9.8,10.5v10.9c2.9,1.4,5.8,2.9,9.2,4.6-2.3,4.7-7,4.5-10.9,5.8.3,2.2,3.8,3.6,1.9,6.6-2,1.7-4.1,3.4-6.1,5.1-1.1-2.4-2.4-5.2-3.6-7.9-4.4,3.6-3.4,8.6-3.4,13.3,0,1.1.8,1.9,2.1,1.7-.8,3,1.1,4.6,3.6,6.7,3.3-1.7,6.9-3.7,10.6-2.1,3.1-5.4-1.3-7.5-3.9-10.8h6.2c2,3.7,4.5,7.5,2.7,11.7,3.4,2,6.6-.4,9,2-2.6,2.5-5.1,5-7.9,7.7-4.2,0-5.3-4.9-9.4-6.8-.3,4.6,4,8,1.3,12.9-4.6-.4-9.2,2.4-14.2,3.1-.6,3.5,2.1,4.1,2.8,5.7,3,1.5,3.6-2.5,5.9-2,5.8,1.4,3,7.9,6.5,10.7-3.3,2-5.2-4.1-8.9-1,2.7,1.8,3.7,5.7,6.8,5.5,2.5-1.1,1.7-2.3,2.1-4.5,3-.6,4-3.1,4.8-6.2,4.5,2.5,6.3,6.7,8.3,11.7-3,1.9-7.4.5-9.8,3.8-2.6,1.5-.2,4.3-2.8,8.2-.4.3-2.7,2-5.7,4.2-2-.2-3-3.4-5.7-5.1-.5-5.4,1.3-11.7-3.7-16.5-2.7-.3-3.9,1.8-5.3,4.6,2.4,7,5.6,14,11.1,20.8v6c1.9,1.9,3.8.4,6.1,1.7.5.6,2.2,1.9,2.4,3.4.3,2.2,1.9,3.6,2.6,5.4,1.4,3.5,6.9,4.2,7.8,8.4.9,4,3,7.4,4.4,11.1,2.7,7.1,7.3,12.3,13.5,16.4v7.6c3.3,2.7,6.4,6.3,6.2,10.2-.2,6.2,4.7,8.9,6.8,13.5.9,1.9,2.8,1.7,4.6-.3-2.9-6.5-6.9-12.7-9.9-19.4-1.8-4.2-.4-6.4.9-9.4h4.9c4.9,2.3,3.7,6.6,3.7,10.5,1.6.1,2.5.2,3.6.3,1.4-3,1.6-5.5-1.5-7.4,3.1-1.8,2.2-5.1,2.6-7.5,1.4,0,2.1-.1,3.4-.2,1.6,4.3,0,9,1,13.5-1.7,1.9-3.3,3.6-4.6,5.1-.4,2.8,1.8,3.4,2.8,4.9,3.7,1,8.2-1.1,11.6,2,1.8-2.5-.6-5.7,1.5-8,.7,0,1.4-.1,2.5-.2,2,3.1.2,6.7.4,7.5-.9,6.8-4.5,9.2-7.1,12h-6.2c-2.1,2.5-4.4,5.2-6.8,8,1.3.7,3.5,1.8,5.5,2.9,3.5-.8,1.2-5.9,6.2-5.6,4.7,3.5,8.4,10.2,15.4,13.7-5.3-.4-9.7,2.6-14.7,3.3-.7,2-.5,4,.3,6.1,1.1-1,1.9-1.7,2.3-2,2.6,2.6,5.1,5.1,7.9,7.9-.8,2.5-2,4.6-5.5,4.8-2.1.2.2,6.1-4.7,3.7,1.4-4.1,3.6-8.7-1.7-12.4-.9.9-1.9,1.8-3.5,3.2,2.3,4,2.8,8.6,2.3,13.4,1.5.3,2.5.5,3.6.8,2,2-2.8,2.1-1.4,3.6.6,4.2,4.3,4.3,6.4,6.1v4.5c-3.9,2-7.4.6-10.6-.7-.5-3.8.2-6.8,2-9.4.2-.3-.5-1.2-.7-1.8-.7,0-1.4-.2-2-.3-1.9.5-1.1,2.3-1.8,3.3-.9,1.4-2.7,2.4-1.7,4.5,1,1,2,2,4.2,3.7,1.3,4.1,3,8.7,2,13.2,2,2.5,3.7,4.1,6.5,3.4ZM502.6,271.1c-1-.2-1.7.3-1.9,1.3,0,.2.5.7.6.6,1-.2,1.5-.9,1.3-1.9,1,.2,1.7-.3,1.9-1.3,0-.2-.5-.7-.6-.6-1,.2-1.5.9-1.3,1.9ZM571.5,659.3c.7,2.6-.6,4.5,1.6,5.3,1.4-1.5,1.3-2.9-.9-2.6-.9-3.7.8-6.2-1.6-8-1.5,2.3-1.7,4.4.9,5.2ZM617.3,435.5c-.2,1,.3,1.7,1.3,1.9.2,0,.7-.5.6-.6-.2-1-.9-1.5-1.9-1.2-.3-2.2-1.9-3.2-3.5-4.1-1.1,1.1-1.1,2.3,0,3.9,1.1,0,2.3.2,3.6.2ZM422.6,768.5c-1.3,0-2.6.2-3.6.3-1,1.6-1.1,2.8,0,3.9,1.7-.9,3.2-2,3.5-4.1,1,.2,1.7-.3,1.9-1.3,0-.2-.5-.7-.6-.6-1,.2-1.5.9-1.3,1.9ZM459.4,747c1.3,0,2.6-.2,3.6-.3,1-1.6,1.1-2.8,0-3.9-1.7.9-3.2,2-3.5,4.1-1-.2-1.7.3-1.9,1.3,0,.2.5.7.6.6,1-.2,1.5-.9,1.3-1.9ZM671.4,634.5c-.2,1,.3,1.7,1.3,1.9.2,0,.7-.5.6-.6-.2-1-.9-1.5-1.9-1.2-.3-2.2-1.9-3.2-3.5-4.1-1.1,1.1-1.1,2.3,0,3.9,1.1,0,2.3.2,3.6.2ZM392.2,389.1c-.4-.4-1-1.3-1.1-1.2-1,.6-3.3-1.3-2.9.9.4,1.7,2.5,1.7-.1-.9-.4-1.5,1-3.4.4-2.4-1.7.3-3.3.7-5,1,.2.4.5.7.7,1.1,1.3,0,2.6.2,8,1.5ZM580.5,757.8c1.3,0,2.6-.2,3.6-.3,1-1.6,1.1-2.8,0-3.9-1.7.9-3.2,2-3.5,4-1.3,0-2.6.2-3.6.3-1,1.6-1.1,2.8,0,3.9,1.7-.9,3.2-2,3.5-4ZM372.8,785.9c.2-1-.3-1.7-1.3-1.9-.2,0-.7.5-.6.6.2,1,.9,1.5,2,1-.5,3.4.9,5.3,3.7,6.7,1.5-4.2-1.4-5.1-3.8-6.4ZM615.1,725.3c.3,2.2,1.9,3.2,3.5,4.1,1.1-1.1,1.1-2.3,0-3.9-1.1,0-2.3-.2-3.3-.2-1.6-2.4-2.5-5.3-6.7-3.7,1.5,2.8,3.3,4.3,6.4,3.7ZM390.5,629.2c-.7-2.6.6-4.5-1.6-5.3-1.4,1.5-1.3,2.9,1,4.2,1.6,2.4,2.5,5.3,6.7,3.7-1.5-2.8-3.3-4.3-6-2.6ZM143.6,392.2c-.2,1,.3,1.7,1.3,1.9.2,0,.7-.5.6-.6-.2-1-.9-1.5-1.4-1.3-3-2.3-2.4-5.8-4.1-10.2-.9,4.7-1.5,7.5,0,10.2,1.4,0,2.4,0,3.4,0ZM342.6,697.2c.2-1-.3-1.7-1.3-1.9-.2,0-.7.5-.6.6.2,1,.9,1.5,2.5,1.3-.4,5-.3,5,3.2,10.3,2.1-4.2-1.8-6.9-3.8-10.3ZM615.2,639.9c-2.2-.8-2.9-4.8-6.3-2.8,0,1.5-.8,3.4.4,5.6,2-1,3.9-1.9,5.9-4,1,.2,1.7-.3,1.9-1.3,0-.2-.5-.7-.6-.6-1,.2-1.5.9-1.3,3.1ZM305.5,814.2c1.6,5.6,4.2,7.5,6.4,5.6.4-1.9,1.1-3.9-.5-5.6-1.7,0-3.4,0-5.6,4.1-1.5.4-3.4-1-4.2,1.3,1.2.8,1.8,2.6,3.9,2.6,0-1.3.2-2.6,0-8ZM321,781.6c-.2,1,.3,1.7,1.3,1.9.2,0,.7-.5.6-.6-.2-1-.9-1.5-2.3-1.3v-10.4c-.6.5-1.3,1-1.9,1.5-.2-1.5-.5-3-.7-4.5-1.7,1.8-2.6,2.8-3.7,4,4.1,2,5,5.6,6.7,9.4ZM498.4,208c-.5,3.4.9,5.3,3.7,6.7,1.5-4.2-1.4-5.1-3.8-6.4v-5.8c-3.1-.5-3.3-6.1-8.2-4.8q3.1,6.4,8.2,10.2ZM571.9,623.7q-1.7-6.4-6.9-5c1.3,3.2,3,5.5,7.2,5v8.1c2.3.7,4.2,1.2,6.4-.7-1.2-2.2,1.4-5.2-1.4-7.4h-5.3ZM680,814c-.2,1,.3,1.7,1.3,1.9.2,0,.7-.5.6-.6-.2-1-.9-1.5-1.9-1.3-.7-5-3.4-8.4-8.7-11.9,0,4.2,0,7,.8,10.1h-9.2v3.5c1.1.2,2.2.3,3.1.5,1,.3,1.3,2.8,3.1,1.1-.5-2.1,1-3.3,2.3-5.6,3.1-.3,6.1.1,8.7,2.2ZM528.9,620.3c-2.2,1.8-3.4,4.2-5.8,3.3-2.3-2.1.8-8-8.1-7.4,6.3,3.1,4.5,7.6,5,11.4q7-.2,8.6-6.1c1,.2,1.7-.3,1.9-1.3,0-.2-.5-.7-.6-.6-1,.2-1.5.9-1,.7ZM457.3,359.8c0-1.3-.2-2.6-.3-3.9-1.6-.5-2.8-.9-3.9.4.9,1.7,2,3.2,4.1,3.5-.6,3.3,1.5,7.1-2.1,9.8,1,1,2,2,3,3,1.3-2.1,4.5-1,5.8-3.9-1.8-2.5-2.3-5.8-3-8.9-1.2,0-1.9,0-3.6,0ZM599.8,530.6c-2,0-2.5,2.1-4.2,3.2.3,3.2-.8,6.7.7,9.7,3.4.7,4.1-1.9,5.7-3,.2-3.5.4-6.9-2.1-9.8,3.9.5,5.7-1.6,6.5-4.5-1.2-1.6-2.2-3-3.5-4.8-.7,3.8-3.9,5.9-3.2,9.3ZM199.7,437.6c0,1.3.2,2.6.3,3.9,1.6.5,2.8.9,3.9-.4-.9-1.7-2-3.2-5.3-3.1,3.1-3.7,6.3-6.8,11.3-8.8-3.7-2.9-4.9-6.6-9.3-6.8-2.4,4.9-4.4,9.8-.9,15.3ZM500.5,465.7c.2-1-.3-1.7-1.3-1.9-.2,0-.7.5-.6.6.2,1,.9,1.5,5.2-.8-1.8,1.6-4.9,2.6-2.6,6,3.3,1.7,5.7-1.3,8.5-1.9,1.8.7,2.8,3.6,5.4,1.7,1.1-2.3.4-4.7.4-6.8-2.6-2.7-5-5.3-7.4-7.8-1.1,1.1-2.1,2.1-3.2,3.2,1.4,1.5,2.8,3,4.2,4.4-1,1-2,2-3.1,3.1-.7-.6-1.5-1.3-5.5,0ZM586.9,465.6c2.8,5.1,2.8,11.3,7.6,15.2,1.6,0,3.4.7,5.2-.5.5-2.6.8-5.2-.8-9.1-5,1.8-5.7-5.3-11.9-5.8,1.5-5.7-3.3-10.8-2.3-15.2-4-4-6.9-7-10.5-10.6.6,9,6,15.9,7.6,23.9.3,1.4,2.1,2.9,5.3,2.1ZM682.1,759.4c-1.3-2.6-2.1-4.2-2.9-5.8-.4.4-.8.8-1.2,1.1-.1-2.4-.2-4.8-.4-7.4-2.9-.6-5.6-.8-8.6.3,1.1,6.7,6.8,10.7,8.9,16.7,2.2,6.2,4.6,12.5,11.1,18.5-1.1-3.7.6-5.8-1.6-8.1-4.5-4.7-5.5-10.7-5.3-17,1.3,0,2.6-.2,3.6-.3,1-1.6,1.1-2.8,0-3.9-1.7.9-3.2,2-3.6,5.7ZM513.5,249.4c3.5.8,5.5-2.4,8.5-3,.1-1.8.7-3.5-.6-5.7-4.6.9-7.4-1.4-8.6-6.1-.9-3.5-2.6-6.9-3.5-10.4-.8-3-2.1-5-5.4-5.2q-3.1,5.9-9.7,7.6c-.5,3.2-.2,6.1,4.5,7.6-1.7-3.5,1.4-4.4,2.9-6.4,1.8,2.7,6.8,1.8,7.2,5.2.4,3.9,1.8,6.6,4.7,8.7,0,2.7,0,5.2.3,7.7-1.7,0-3.3-.3-4.6,0-1.9.6-2.1-3.1-4.4-1.3.2,5.4,5.5,3.3,7.1,5.5,2.3-1,1.4-2.2,1.7-4.3ZM568.6,483.1c-3.7,3.9-8.1,7-9.1,11.9,2.4,5,4.6,9.4,6.8,13.9,2.6-.2,5.5,1.1,8.5-1.8-7.6-6.6-.4-12.1,1.5-18-1.3-2.2-2.4-4.1-3.6-6.1h-4.1ZM616.6,496.4h-10.5c2,2.3,3.5,4,4.4,5,1,3.4-4.6,4.4-1.1,7.3,5.8,1.4,8.9-2.5,11.6-6.4,5,1.3,4.9,5.9,7.4,8.9-1.9,3.8-5.5,7.1-4.5,12.1,1.4,1.6,3.4.4,5,.9,1.7.6,2.7,3.9,5.3,1.4-1.3-3.9-1.3-3.8-5.2-6-.5-.3-.6-1.2-1.2-2.3.7-2.4,4.5-3.2,4.3-6-.5-9.6-10.4-9.7-14.8-15.6h6c.6-1.6.8-2.8-.5-3.9-1.9,0-4-1.1-5.5,1,0,.7,0,1.4-.7,3.5ZM468.4,256.6v11.7c2.1,1.7,3.4,4.8,6.5,1.2-1.9-3.7-3.8-7.5-6.8-11.4v-8q5.2-.2,9.1,1.5c.4,2.8-1.7,6.1.7,8.7,1.2,0,2.3.3,3.1-1.1,1.2-3.3-3.2-4.6-4.2-7.6-1.7-7.4,2.8-14.3,2.2-21.6,1,.2,1.7-.3,1.9-1.3,0-.2-.5-.7-.6-.6-1,.2-1.5.9-1.3,1.9-2,.3-4.2-.6-6.1.7-1.3,2.5.9,5.7-1.3,7.9-1.3-.6-1.7-2.4-4.3-1.9-1.3,1.1-3.1,2.7-4.7,4.1-2.6.5-5.2-1-8,1.7,2.5,6.8,5.7,13.1,13.9,14.1ZM636.7,485.5c5-1.7,7.7,5.5,13.9,3.3-4.2-7.2-8.1-13.8-12.2-21-3.4.6-6.8-.6-9.5.5-5.3,4.8-5.5,10.3-4.9,16,1.5,1.5,2.8,3.8,4.6,4.4,2.7,1,.2,5.6,4.2,5.2,4.4-1.5,4.2-5.1,4-8.4ZM699.4,729.6c2.8,1.2,5.2,3.9,8.3,1.5,1.9-4.5-1.6-6.5-3.2-8.2-.1-4.1,4.1-5.8,3.1-12.3-1.8,6-5.6,2.5-8,4.7,0,1-.2,2.1-.1,3.1,0,1.2-.3,2-1.3,2.6-7-1.3-9.4-2.4-9.5-4.3,1-2,2-4.1,2.8-5.9,3-2.1,5,.8,7.7,1.1,1.6-6.2-3.7-9.8-5-14.6h-4.8c-.5,1.7-3,2-2.9,4.3-.5,2.2,4.8,3.3,1.2,6.3-1.3-.9-2.2-2.7-4.7-1.9-.6.7-1.6,1.8-2.5,3,4.6,9.3,9.8,18.4,15.7,27.2,2.1-2,4.3-3.6,3.3-6.7ZM539.4,511.2h-3.3c-1.9,1-.2,5.7-4.8,4-1.4-.6.4-3.5-2.2-4.1-3-.9-5.1,1-6.1,2.2-1.8,3.4.2,6-2.1,8.9-4.4,3.3-10.5,3.8-16.2,4.8.2,1.4.3,2.1.4,2.9,2.2,1.6,4.8.4,7.2.8,1.5,1.4,3,2.8,4.5,4.3,1.3-2.1,1.6-4.7,3.8-6.1,3.3-.8,6.6-.8,9.1,1.2,3.7-1.6,2.9-6.5,6.5-7.9,6.2-2.4,11.8,4.1,18.1,1.4.2-2.1.4-3.8.6-5.7,2.6-.1,5-.3,7.4-.4,1-1,2.1-2.1,3.1-3.1-6.8-5.2-11.7-4.1-22.9,5.2-1-1-2.1-2-3.1-3,0-1.9,0-3.6.3-4,2.1-3.8,6.4-4.8,6.1-11.7-2.9,4.5-7.3,5.5-6.4,10.3ZM563.3,342.5c-.4-6.3,1.1-11.6-2.7-16,2.7-1.9,6-2,6.9-5.1.3-1,0-2.1-1.1-2.8-2.9-.5-4.6,3.3-9.1,1.6-2.3-2.4-5.7-5.9-10.9-6-1.1,0-2,.1-2.4,1.2,2.5,2.2,3.1,4.6,1.2,7.2-1.2.2-2.1.4-3.3.7v11.7c1.9,1.3,3,4.8,6.2,2,.6-3.8-3.8-5.8-3.7-9.4,2.9-1.4,4.3.8,5.3,2.4,1.8,2.7,4.8.5,7.2,2.6-1,2.2,1.4,5.1-1.2,7.5-1.7.4-3.6-.7-5.1.8-2.1,9.4,4.2,16,7.8,23.5.8,1.6,2.4,2.6,4.5,1.1-.4-2.2-2.5-2.9-3.8-4.7-.1-2.2-.2-4.6-.3-6.7-1.6-1.6-2.8-2.8-4.1-4.1.2-2.4-.7-4.9.8-7.6h7.9ZM584.1,637.9c7.5,2.7,12.5-1.2,18.4-2-3.1-2.6-3.6-5-1.6-7.9.8.7,1.5,1.4,2.5,2.2,2.2-4.5.7-7.3-3.7-8.9-4.4.3-8.2,5-12.8,1.1,0-4.4,5.2-5.2,6.3-9.2-2.9-1-1.9-3.5-1.8-5.5.2-2.9-1.4-4.3-3.6-5.4-2.4,2.9.2,5.4,1.2,9-3.8-1.1-6.6-4.8-10.9-1.6,1.1,4.8,3.5,9.9,2.5,14.9,2.1,2.3,4.8,0,6.3,2,1.1,4-.5,7.5-2.7,11.2ZM569.7,450.3c-3.5-3.8-6.6-7.1-9.7-10.5-1.2,1.2-2.2,2.2-3.1,3.1.6,3.6,6,1.8,6.5,5.3-1.2,5.1-5.4,4.1-8.5,5.2-1.1,3.4.9,7.2-1.3,10.2-2.6.4-5.2-.8-8.7,1.7,3.1,3.6,5.8,7.3,10.1,9.5,2.4-2.8,2.6-6.5,7.1-7.3,1.7-.3,2.5-5.1,3.9-7.7,1.6-2.9,3.9-5.6,3.8-9.5ZM437.5,384.4c-4-.7-5.8-3.9-8.6-6.4,2.3-1.7,3.1-3,1.7-4.9-1.8.2-3,3-5.2,1.3-.4-1.2-.9-2.5-1.3-3.7-4.5-.7-7.6,1.3-11.1,4.5,3.2,3,8.8.8,9.7,6.4.2,6.2-4.9,9.8-8.9,14.1.7,1.7-.6,3.7,1.2,5,5.8-5.9,14-7.5,20.7-11.9-.8-2.1,1.4-2.9,2-4.4ZM528.6,265c0,2-.6,4,.1,4.8,3.6,3.8,6.1,7.9,6.8,13.3.2,1.4,2.2,3.7,5,3.1.1,0,.5.9.7,1.3-.7.9-1.3,1.7-2.3,3,2,3,5.4,5.1,5.7,9.2q5.3-3.7,4.8-9c-1-.2-2-.4-3.2-.7-.1-2.4-.2-4.8-.4-7.3-3.9-3.8-7.9-7.5-8.6-13.6-.5-4.6-3.9-5.1-8.6-4.2ZM637,625.5c-1.1-3.6-.1-6.5,3.2-8,5.1,4,5,9.7,5.8,14.7,3.8.4,5-1.8,6.4-4.8-1.4-1.5-3.1-3.3-5.1-5.4v-9.5c-5.5-.7-7.6-5.6-12.2-10.1-.2,5.1-.4,8.5-.5,11.8-1.6.6-2.8,1-3.9,1.4v7.3c1.6,1.2,2.3,3.3,6.4,2.6ZM656.3,635.5c2.3,2.4,4.7,4.8,7.2,7.4-6.1,5.9-.4,11.3-.5,16.9,4,2.9,6.4,8.1,12.2,9.7.5-3.3,1.7-6.4-.3-8.5-6-6.2-7-14.3-8.6-21.9-2.7-2.6-5.8-3.8-10.1-3.5ZM583.1,467c-5,2.6-7-1.9-10.2-1.2-2.5,3.8-3.4,8.2-4.8,12.9h6.4c7.4,4.7,9.2,13.2,15.9,17,1.1-1,2.2-1.9,3.2-2.8-1.5-2.2-3.5-3.4-6-3.8-2.5-6.6-5.9-13-4.4-22ZM618,649.5c-2.6,6.3-8.4,3.9-12.7,4.5-1.6,1.6-2.9,2.9-4.2,4.2-1.7.5-3.6-.7-5.6,1.2-2.2,2.2-3.5,5.4-4.5,9.5,7.4.9,5.8-6.9,10.3-8.4,1.1,3,3.9,2,6.2,2,1.7-1.9,1.4-5.3,4.1-6,1.3,1,2.4,1.9,3.8,2.9-3.1,1.5-2.8,4.7-4.4,6.8,1,.9,2,1.9,3.1,2.9,1.6-2.8,0-6.8,3.1-8,3.2-1.6,6.3.7,8.7-2-4-1.7-3.9-6.6-8.1-9.6ZM485.3,263.4c.7,1,1.7,1.2,3.6,1.1.9-1.2,2.2-3,2.9-3.9,3.6-1,6.7.8,8.7-1.6.5-3.9-4-4.2-4.6-7.3v-5.7c-2.2-3-4.7-3.9-7.7-2.6-2.9,2.2-3.5,5.7-5.1,8.9,1.6,1.8,3.2,3.6,4.3,4.9.7,3.1-3.4,3.7-2,6.3ZM472.3,174.1c3.2,5.1,8.1,6.8,9.2,11.9.3,1.4,2.3,1.2,3.5,0,1-1,1.9-1.9,3.3-3.3-5.6-6-8.4-13.4-12.7-19.7h-5.2c1.5,2.7-1.8,3.6-1.8,5.9,1.3.4,2.5.9,3.8,1.3v3.9ZM530.9,397.1c-.5,5.1,1.4,8.3,4,11.2,1.4,1.5,2.9,1.9,5-.3-3.4-2.9-2-7.4-3.5-11.2-1.4-3.7-2.8-7.5-4.2-11.2-3.3,1.6-4-3.5-7-2.1-.9.4-2.2-.2-2.9,1.1v4.5c2.6,2.4,5.5,5.1,8.6,8ZM648.4,510.7c2.9,2.2,0,10.4,7.8,9.1,4.6-.8,8.7-4.3,8.7-7.2-.5-2.5-3.3-.6-4.2-2.4,0-3.6-.2-7.1-4.6-7.7-2.5,2.7-4.9,5.2-7.7,8.2ZM291.5,515.6c4.6,1,7.2-2.4,9.8-5.6-1-1-2-2-3.1-3.1-1.3,3.8-5.3,1-7.4,3-.3,1.5.2,3.7-2.5,3.5-5.2-.8-3.2-6.3-5.3-8.8-1.3.2-1.9.4-2.6.5-2.7,6,1.8,10.3,3.8,15.1.9,2.2,2.3,4.4,5.5,3.8,2.3-2.3-.2-5.5,1.8-8.5ZM621.9,441.9c-1.1,5.8,2.7,10.2,2.6,15.2,6.1-.2,5-6.1,8.8-8.3,2.6-.7,6.7,0,7.7-4.6-1-2.1-2-4.2-3.2-6.9-1.5,1.4-3.8-1.1-5.3,1.4.7.8,1.8,1.6,1.9,2.5.1,1.7.8,3.6-1,5-4.1,0-6.7-4.3-11.6-4.4ZM527.1,357.3c4.2-3.1,2.7-8.3,5.9-11.9,3.4-3.9,3.1-4.2-1.4-9.8-2.5,6.1-7.5,10.1-11.7,14.4q1.5,6.7,7.2,7.2ZM393.6,696.2c8,4.7,7.8,12.7,11.8,17.8,4.1,5.2,6.5,11.7,10.2,18.6.2-2.2.7-3.4.4-4.2-3.3-7.6-6.7-15.2-10-22.8-2.1-4.7-4.9-8.8-6.9-11.2-1.9.6-3.7,1.3-5.4,1.9ZM725.9,788.1c1.5,6,8,5.7,10.4,10-.1,2.9-3.7,4.6-2.1,8,1.1,1.4,2,3.5,5.3,3.6.5-1.6,3.1-1.8,3.3-4.5-2.4-4.2-2.2-10.7-7.7-12.6-4.2-1.5-4.1-4.5-5.8-7.2-1.7-2.7-.4-6.1-3.5-8.9v11.5ZM468.1,286.1c0-5.8-1.8-10.1-4.5-14.1-.7-1-1.8-1-3-1-.9.9-1.9,1.8-3.4,3.2.4,4.3,0,9-2.5,13.2,5.6,2.7,8.8-2.9,13.4-1.3ZM286.9,500h9.8c-2.9-7.7-5.5-15.3-7.5-23.1-.6,7.7-4.9,14.8-2.3,23.1ZM298.7,392.5c2.7,4.6,1.7,10.2,7.6,13.4,2.7-3.5,5.9-6,10.4-5.4q-.9-5.6-6.2-9.6c-4.9.5-.3,7.2-4.1,7.9-3.1-.3-2.4-2.1-3-3.2-.7-1.2-1.6-2.9-4.8-3.1ZM493.1,307.1c4,.9,6.3,1.4,8.3-1,.4-.5,1.8-.2,2.7-.2,1.2,2.6,3.2,4.6,5.1,5.8,1.7-.9,3.1-1.7,5.1-2.9-5.6-2.3-.9-7.2-4.4-9.8-6.1.6-11,4.2-16.8,8.1ZM598.8,461.5c5.3,2.3,1.1,10.3,8.3,10.8,3.8-2,4-6.1,5.9-8.8-1.3-5.8-7.5-2.9-9.9-6.3-1,1-2,2-4.3,4.3ZM654.7,608.4c3.2,4.7,6,8.9,8.8,13.2.4-9.1-5.3-14.2-11-20-2.2,1.5-4.9-.8-7,1.4,0,1.7-.6,3.5.7,5.4h8.5ZM234.2,409.6c2.8,4.2,3.7,8.6,8.1,10.4,2-2.5,6.1-2,7.1-5.5,1.2-3.9-2.4-6.1-3.2-9.8-.6,1.6-1,2.9-1.6,4.9h-10.3ZM666.1,452.6c-5.5,1.8-8.4-2.6-12.7-1.9-3.7,1.5-3.4,6.9-7.8,7.4,1.2,1.4,2.1,2.4,3.6,4.1,5.3-2.4,11.3-3.6,16.9-9.6ZM438.3,297.1c4.2-1.6,7.4,4.3,12.1,1.4q.2-7.2-2.9-10.1c-2.4.3-4.9-.6-6.9.7-3.7,1.5-3,4.4-2.3,8ZM452.7,385.8c-2.3.7-3.3,3.6-5.1,3.9-2.8.5-4.2,2-5.5,4.1-.8,4.8,2.9,6.5,5.5,9.1,2.2-1.6-.2-4.3,1.5-5.9,1.8-1.4,4.4.6,6-1.7-3.9-2-1.7-5.6-2.5-9.5ZM593.5,425.6c3.6,1.3,6.6,3.3,7.9,10.2.6-9.5,7.2-9.3,11.5-12.1-1.4-1.4-2.3-3.6-5.1-3.3-2.1,1-2.9,3.8-6.5,4.5-2.3-.5-3-5.5-7-4.3-1.7,1.4-.5,3.4-.9,5.1ZM591,781.8v-14.7c-1.7-1.4-2.5-3.3-4.8-2.8-1.4,1.4-3.7,2.1-3.4,6.7.7,3.3,3.4,7.4,8.1,10.9ZM632.4,711.2c.3,2.5-.7,5,.3,6.6,5.9,4.2,7.1-3.6,13.2-3.3-.6,0-.6,2.5,1.4,1.6,1.4-6.2-5.4-4.9-7.3-7.9-.7.6-1.5,1.3-2.1,1.9-.8-.7-1.5-1.3-2.1-1.8-1.2,1.1-2.2,2.1-3.2,3ZM629.5,679.9c-3.2.4-6.8-.7-10.1.9-.4,4.1,3.7,4.6,4.5,8.4.9,1.2-1.7,4,.9,5.9h2.2c2-2.1.2-4.8,1.1-6.9,1.1-2.4,3.1-4.5,1.3-8.2ZM373,766.4h7.4q4.3-3.9,9.4-5.2c-.8-1.2-1.7-2.5-2.3-3.2-3.1,1.6-5.3,2.7-7.6,3.8q-2.1-4-6.4-6.4c-1.3,3.5-.6,6.9-.6,11ZM533.5,509.4c2.9-4.3,5.5-8.3,2.5-14-3.7,2.7-8.5,2.7-9.8,7.6,2.1,2.4,3.8,5,7.3,6.4ZM408.8,618.8c-2,3-5,4.1-5.7,7,1.8,3,2.6,6.4,5.4,8.5,3.1-1.7,3.8-5,5.1-7.8-1.4-2.3-2.8-4.6-4.7-7.7ZM262.6,519.4c.2-6.9-3.4-10.9-7.6-14.8-1.2,2.4-2.3,4.7-3.5,7,2.1,2,5.4,2,6.6,4.8-.6.7-1.3,1.4-2,2.2,1.6,2,3.7.9,6.5.7ZM442.2,635.4c-3.8-1.9-4.2-5.7-5.3-9.2-.3-.8-1.2-2.4-2.9-2.2-1,1.1-1.9,2.1-3.4,3.6,4.1,2.8.8,10.4,8,11.2,1.2-1.2,2.2-2.2,3.5-3.5ZM459.6,348.9c3.9.4,5.1-1.7,6.5-4.2-1.2-4.1-3-8.4-2.7-13.7-1.8,1.8-2.8,2.8-3.8,3.8v14.1ZM710.7,807.8v11.8c2.3,3,4.7,3.9,8.1,2.2,0-1.2.2-2.6.3-4.1-2.2-3.7-6.7-5.5-8.3-10ZM428.4,530.8c2.9-5.3-6.7-6.7-3.8-12,.2-.3-2.3-2.3-3.7-3.2-.4-.3-1.3.2-1.9.4-.2,8.5,1.1,10.5,9.4,14.8ZM649.4,646.2c.5-6.3-4.1-9-6.3-12.7-1.4-2.3-4.2-1.8-6.8.3,3.1,5.1,6.8,9.2,13.1,12.4ZM163.4,448.7v14.7c3.1,0,5.9,1.1,8.4-1-.2-4.8-6.4-5.7-6.7-11-.6-.9,3-.5,1.5-2.7h-3.2ZM612.3,447.5c-2.2,3.6-1.2,6.1-1.5,8.6,2.5,1.7,3.7,5.4,8.1,5.5,1.6-6.3-1.3-10.2-6.6-14.1ZM370.8,767.6c-2.3-2.3-4.3-4.2-6.3-6.3-1.4-1.5-2.7-2.1-5,0,2.2,4.3,3.5,9.2,8.6,11.6.5.2,1.3-.3,2.3-.5,0-1.2.2-2.6.4-4.7ZM727.1,816.1c2.3-1.3,3.7-2,5-2.7-3.6-4.6-8.1-6.9-9.7-12-.3-.9-2.4-.6-3.2.6,1.4,2.4,3.6,4.5,3.9,7,.5,3.3.8,6.1,4,7.1ZM601.4,673.8c-4.4,2.8-12.2,1.7-11.8,12.1,4.6-5.2,10.8-5,14.7-9.2-1.2-1.2-2-2-2.9-2.9ZM470.2,207.3c.8-4.1-5.3-4.7-4.5-8.8-3-1.4-1.4-6.8-6.7-6.7,1.3,6.9,6.1,12.1,7.6,19.1,1.6-1.6,2.6-2.6,3.6-3.6ZM283.7,844.1c1.7-4.2-3.2-4.9-3.5-7.8,2.5-1.8,2-4.1,1.3-6.5-1.6-1.2-3.3-.4-5-.5-1,1-2,2-3.1,3.1,4.4,2.9,4.7,9.5,10.4,11.7ZM641.1,772.3c3.7,3.7,6.1,6.1,8.6,8.6,0-1.4.7-4-.1-4.6-4.3-3-4.4-7.6-4.4-12.1-4.9,2.1-4.1,5.9-4.1,8.1ZM562.5,428.6c2.8,2.7,4.9,4.9,7.2,7.1,1.2-.8,2.8.6,3.9-1-1.7-3.4-3.5-6.8-5.2-10-3-.4-3.8,2.1-6,3.9ZM567.9,565.8c5.3,3.5,3.2,10.9,7.8,14.6,2.5.2,3.3-2,5.7-4.3-7.4-.5-5.6-10.3-13.5-10.3ZM467.5,479.7c3.3-2.5,6-4.5,7.3-7.7-1.6-1.9-2.5-4.1-6.1-4.1-.5.9-1.4,2.4-2.7,4.6.2,1.1-1,3.7,1.5,7.2ZM481.7,617.5c-3.4-1.7-6.2-3-9.3-4.5v5.8c4.2.9,8,5.1,13,1.5-.4-1.8.8-3.7-1-5.2-.8.7-1.5,1.4-2.7,2.4ZM666.6,721.4c6-2.7,4.9-6.8,4.3-11.1h-6.3c1.4,3.1-.5,5.4-1.3,8.1,1,.9,2,1.8,3.3,3ZM468.1,440.9c-2,1.9-3.4,3.2-1.2,5.3,3.1-1.6,3.2-5.4,5.3-7.8-4-1,0-6.4-2.9-7.2-3.3,0-3.8,2-5.3,3,1.8,1.9,1.5,5.1,4.1,6.7ZM435.8,415.1c1.6,1.3,2.6,3.6,5.2,3.1,1.1-1.7,3.7-2.4,3.2-5.1-1.8-3.1-5-4.1-8.1-5.2-1.1,2.4-.5,4.9-.4,7.3ZM387.6,671.7c-1.3-.6-1.6-2.4-3.3-2.3-1,1.1-1.9,2.1-3.1,3.4,1.9,3.8,3.9,7.5,6.4,12.5v-13.6ZM764.3,898.8c-2.8-.3-5.6-1.1-9,.7,1.3,2.7,2.6,5.2,3.8,7.7,4.6-1,5.9-3.8,5.2-8.4ZM479.2,463c-1.9-2-3.3-3.5-4.7-4.9-.5-1.8.8-3.7-1-5.3-2,2.2-5,3.6-5.6,6.9,3.2,2,5.9,4.8,11.3,3.2ZM450,322.8c1.6-7-4.7-10-6.6-15.6-2,3.2-1.3,5.9-1,8.4,2,3.2,6.8,2.9,7.6,7.2ZM316,675.8c1.4,2,3,2.5,2.7,4.2.3,2-2.9,2.3-2,5.2,1.3,1.8,3.2,3.8,5.8,5.8,1.5-6.2-3.9-9.9-1.3-15.2h-5.3ZM527.6,262.9c.8-2.2,3.7-2.7,3.2-5.5-1.3-1.5-2.1-3.7-5.4-3.7-.4,1.6-3.2,1.8-3.2,4.4.6,2.2,2.1,3.5,5.5,4.7ZM688.5,682.1c-1.9,0-3.5-.4-4.6,0-1.5.6-2.6,2-3.9,3,.8.9,1.9,1.6,2.1,2.4.3,1.3-.1,2.8,2.1,3.1,4-.9,5-3.8,4.3-8.7ZM493.5,169.9c-2.5-.8-5.2-.8-8.9.4,4.5,2.4,5.1,6.5,5.8,9.9,2,.2,2.9,0,3.4-1,1.3-2.4-1.3-3-1.8-4.6,1.4-1.1,2.7-2.3,1.5-4.7ZM540,375.2h-15.1c-.9,1.7-.8,2.9.4,3.9,2.1.8,3.1-.9,4.2-1.9,3.6,3.4,6.7,2.5,10.5-2ZM523.1,416.5c1.9-3.1.9-5.6.9-5.6-2.9-2.9-4.8-4.7-6-6v6c.4-.3.8-.7,1.2-1,1.3,2.1,2.5,4.2,3.9,6.5ZM502.2,508.6c-4.2-3.4-4.3-9.7-10.1-12.5v5.8c3,2.1,4.9,6.4,10.1,6.7ZM727.6,834.5c-1.9-.9-3.9-1.9-5.8-2.8-1.3,1.6-1.1,3.7-.5,5,1.1,2.5-2.7,3-1.4,5.8,2.7-1.1,5.2-2.3,7.7-3.3v-4.6ZM490.7,106.7c1.7-1.7,3.5-3.4,5.2-5.3.4-.4.2-1.3.2-2q-5.8-1.4-8.6,4.1c1,1,2,2,3.2,3.2ZM655.1,790c-4.6.6-2.7,3.4-3.3,5.4,2.4,2,3.7,5.8,8.8,5.6-2-4-3.7-7.4-5.5-11ZM732.5,852.7c3.4-1.5,6.6-2.2,9.9-2.1,0-2.6,1.4-4.8-1.3-6.6-4,1.3-6,5.3-8.6,8.7ZM446.4,231.1c1,1,2,2,3.1,3.1,2.6,0,5.3.9,7.3-.4-2.5-2.8-4.9-5.3-7.2-7.9.3,2.6-1.6,3.8-3.1,5.3ZM462.8,386c1.7,3.4,2.9,5.8,4.5,9.2,1.1-4,5.7-4.4,4.9-8.7-2.5-1.6-5.2-.7-9.4-.5ZM160.7,389c-1-1.1-1.7-2.6-3.5-2.9-3.2,4.8-3.8,8.4-1.8,10.4,1.7-.2,3.5.7,5.6-1-1.2-1-2.7-2.1-2.2-4.2.5-.6,1.2-1.4,1.9-2.2ZM333.7,571.8c1.4,3,4,3.9,4.7,6.5.6,2.1,1,4.8,3.8,5.7,1.6-4.8-.7-8.6-3-12.2h-5.5ZM351.2,797.7c-1.2-1.7-3.1-.7-4.9-1-2.2,1.6-4.1,3.6-6.6,6.4h8.8c.5-1.7,2.9-2,2.7-5.3ZM329.6,812.5c-5.2-1.8-8,1.1-10.9,2.8.2,3.1,2.3,3.7,3.1,5,2.5-2.5,5-5,7.8-7.8ZM647.6,756.3c0-2.5,0-3.2,0-3.9,0-1-.2-2-.4-2.9q-6.7-.2-11.9,3.6c3.8,1.2,8.2-1.2,12.3,3.2ZM639.7,586.5c-.6,7-.7,7.1,5.3,8.8,1.2-4.3.1-7.2-5.3-8.8ZM495.4,628.3c.6-7.1.6-7.1-5.6-8.7-.7,4.3,0,7.3,5.6,8.7ZM501.3,247c5-2.5,3.5-6.5,2.9-11.7-2.1,3.7-5.5,4.6-5.9,8.1.2.4.2.8.4,1,.7.8,1.5,1.5,2.6,2.6ZM456.8,321.8c2.7,1.6,4.6,1.6,7.1.2-1-2.3,1.2-5.1-1.3-7.8-5,.6-3.3,5.4-5.7,7.6ZM150.1,404.1c-2.7-2.4-4.8-4.3-6.4-5.7-.4,2.7-1.1,6.5,3.3,8.8,1-1,2-2,3.1-3.1ZM461.6,302.5c-.6-1-1.9-1.7-2.6-1.1-2.2,2-4.1,4.2-6,6.4-.2.2.4,1.2.7,2h5c0-2.9,3.3-4.3,2.9-7.3ZM455.4,612.2c-1.6.5-3.3,1-4.2,1.3,1.3,3.5,3.5,3.8,6.1,3.7,1.3,0,1.8-.7,2.1-1.8-.1-2.8-1.9-4.1-4-3.3ZM478.6,187.5c-1.8-1.2-2.7-4.5-6-2.2-.2,2.6-1,5.3.6,7.8.8,0,1.5,0,3,.2-.1-2.2,1.3-3.9,2.4-5.7ZM619.7,702.9c-5-3-4.1-7.1-5.3-9.8-1.9-.3-2.9,0-4.2,1.7,3.1,1.9,2.2,6,3.6,9,1.4-.2,2-.3,5.9-.9ZM666.4,768.1c-.2-4.2,3-9.3-2.9-12.3-2.4,4.8.8,8.4,2.9,12.3ZM675.9,677.5c4.4,1.2,7.5-1.2,10.8-3.7-.3-.9-.7-1.8-1.1-2.9-2.3,4.3-6.6,1.2-9.7,3.2v3.4ZM333.9,639.7c4.9,2.9,3.6,7.1,5.1,9.8,1.9.3,2.8,0,4-1.8-3.3-1.9-1.9-6.2-3.6-9.1-1.3.3-2,.4-5.5,1ZM585.2,567.4v8.3c1-3.2,5.9,0,6.2-3.9-.8-2.5-2.1-4.3-6.2-4.4ZM498.9,640.5c-3,1-4.7,3.8-6.8,6.5,2.8,0,5.5,1.3,8.1-.2.2-2.1,1.2-4.1-1.3-6.3ZM556.9,608.9c2.7-1,5.2,1.1,6.5-2.4-.6-2.5-3.2-3.8-4.9-5.9-.6-.8-1-.8-1.6.3v8ZM455.1,259.6c-1.5-2.2-3.6-4-6.4-5.3,1.3,3.5,2.4,6.9,2.5,10,5.4,1.1,3.5-2.5,4-4.7ZM467.4,294.3c1.7,2.9,2.8,5.5,6.5,4.6,1.6-3.6.7-6.3-2.9-8-1,1-2,2-3.5,3.5ZM555.1,309.9c3.9-2.2,4.6-4.9,3.2-8.1-2.1-.5-4.1-1.2-5.8.5-.8,3,2.6,4.5,2.6,7.6ZM602.1,748.1c-4.3-2.1,0-7.4-3.4-9.8-1.2,0-2.2,0-2.6.9-2.3,2.9,1.8,3.3,1.8,5.5,0,2.1-1.3,4.7,1.1,6.5.8-.8,1.6-1.6,3.1-3.1ZM352.9,749.3c1.1,4.2,2.3,6.7,6.2,6.2,1.2-2.3,1.3-4.2,0-6.2h-6.2ZM698.8,805.5q-8.9.7-9.4,6.3c4.2.4,5.4-3.6,9.4-6.3ZM426.4,439.6c.8-2.8.9-5.5,0-8.3h-3.3c-.8,2.8-.9,5.5,0,8.3h3.3ZM515.9,456.9c3.7-3.2,7.3-3.8,5.8-8-2.3-.3-4.3-1.2-5.8.3v7.7ZM266.6,418.6c1,2.4-1.3,5,2.5,6.3,1.8-1.3,4.6-2.1,4.3-5.7-1.7-1.9-3.8-.9-6.8-.7ZM611.9,515.5c-1,1-2,2-3.1,3.1,1.3,1.5,2.1,3.7,5.7,3.3.6-.7,1.7-1.9,2.8-3.2-1.2-1.2-2.2-2.2-3.2-3.2-.2-.2-.7,0-2.1,0ZM307.3,727.3q.5-6.4-5.8-5.2c.1,1-.4,2.1.7,2.9,1.3,1,2.1,2.9,5.1,2.3ZM334.7,467.8q8.9-.7,9.4-6.3c-4.2-.4-5.4,3.6-9.4,6.3ZM331.5,802.7c.6,5.2,3,7.2,6.4,8.5,1-4.5-.3-7.3-6.4-8.5ZM201.2,445.9c1.9,2.3,2.5,5.2,6.3,4.7,1.5-2.2,1.6-4.3-.1-6.5-1.7.4-3.6-.7-6.2,1.8ZM627,647.5c-1,.7-1.2,1.7-1,3.2,1.8,1.5,3.8,3.2,5.5,4.7,1-.7,2.1-1.5,3.1-2.3-1.6-3.5-5.6-3-7.6-5.6ZM617.7,611.4c-3.9-1.4-6.9-1-8.7,2.6,1,1.1,1.9,2.2,2.8,3.2,1.9-1.9,3.7-3.7,5.8-5.8ZM226.1,479.4c-2.2,4.8,3.6,2.8,4.3,5.1.3,1,1,.9,1.5-.1,0-1.9,1.2-4-.8-5.7-1.6.4-3.5-.7-5,.7ZM257.5,407c2.5-4.4-1.3-6.9-3-10.1-.2,3.7-2.4,8,3,10.1ZM626.9,645.4c1.1-1.1,2.1-2.1,3-3-1-1.9-2-3.8-3-5.7-1,.1-2.1-.4-3.1,1.2-1.4,3.2,3.4,4.4,3,7.6ZM359.4,484.8c-4.3,1.1-6.8,2.6-5.2,8,3-2,6.2-2.5,5.2-8ZM248.5,428.8c-1.6-1.9-3.2-3.8-4.9-5.7-1.8,3.4,0,5.9,2.8,8.1.9-1,1.8-2.1,2.1-2.4ZM455.1,545.8c.1-5.2-3.6-6.1-6.2-9.9v7c2.1,1,3.7,1.8,6.2,2.9ZM630.3,540.5c-2.4-3.1-4.9-5-8.7-2.4.2,1.1-.4,2.2.9,3.1,2.4.2,5.2,1,7.7-.7ZM326.3,768.6c2.8.3,4.1-1.5,5.3-3.5-1.7-1.4-2.7-3.6-5.3-2.9-1.5,2.1-1.6,4.3,0,6.4ZM489.7,288.9c-.4,3.5,1.6,4.6,3.4,5.9,1.5-1.8,3.8-2.7,2.9-5.4-1.7-1.7-3.7-.9-6.3-.4ZM478.7,269.9c-4.7,6.1-5.2,7.9-3,9.8,1-.1,2.1.4,3-1v-8.8ZM635.7,512.5c-2.4,4.8.6,6,3.3,7.3.4.2,1.2-.4,1.9-.7.9-3.5-1.7-4.6-5.1-6.6ZM400.9,421.1c1.2,1.2,2,2.8,3.8,3.1.9-1,1.8-2,2.8-3-2.9-.8-1.2-4.1-3.3-5.2-.9,1.5-3,2-3.3,5.1ZM506.9,109.4c-3.8-1.6-4.6,1.4-6.4,2.7,1,1,2,2,3,3,2-1.2,3.8-2.4,3.4-5.7ZM539.7,353.5c0,2.9-1.1,5.7,1.1,9.2.7-2.6,3.1-2.8,3-4.8-.4-2.3-1.8-3.5-4.1-4.4ZM502.5,342.6c.3,1.9-.3,3.1.9,3.8,1.9.2,4,1.2,5.7-.7-.2-1,.4-2.2-1-3.1h-5.6ZM162.4,400.9c-2.2,1.3-4,2.6-2.2,3.9.5,1.7,1,3.3,1.8,6.1,1.3-4.5,1.3-7.1.4-10ZM396.1,535.7c-1.3.7-2.7,1.4-4.2,2.3,2.6,1.8,3.6,5,6.6,2.7,1.5-3.1-1.7-3.9-2.4-5ZM609.5,537.3c-1.2,2.1-1.2,4,0,6.1h2.7c1.2-2.1,1.2-4,0-6.1h-2.7ZM647.6,674.4c-2.2-1.6-4.3-1.7-6.5,0,.2,1-.4,2.2.8,3,1.9.2,4,1.2,5.7-.8v-2.2ZM736.4,861.3c3.4-2,6.6-3.6,6.2-9.9-2.7,4.2-6.7,5.2-6.2,9.9ZM489.7,233.2c-2-1.3-3.1-5.2-6.5-2.3-.3,2.8,1.5,4.1,3.5,5.2,1-1,2-2,3-3ZM419,551.7c-2.9-2.2-5.1-2.2-7.3-.5.2,1-.4,2.2.8,3,2.1.2,4.6,1.4,6.5-2.4ZM438.8,329.5c-1.6,2.2-1.7,4.3,0,6.5,1-.2,2.2.4,3.3-1.4-.8-1.3,1.2-3.5-1.1-5.1h-2.2ZM621.4,550.4c-2.9,0-5.7-1.1-8.7.8,1.9,1.2,2.5,3.3,4.5,3.3,2.1-.4,3.3-1.7,4.2-4.1ZM160.3,429.7c-1.3.7-2.7,1.4-4.3,2.3,2.6,1.8,3.6,5,6.7,2.7,1.3-3-1.7-3.9-2.4-4.9ZM440.1,325c-.3-1.9.3-3.1-.9-3.8-1.9-.2-4-1.2-5.7.7.2,1-.4,2.2,1,3.1h5.6ZM314.6,805.1c2.2-1,4.1-1.8,6-2.6.2,0,.2-.6.2-.5.3-1.5,0-2.4-1.2-3.3-3,.7-5.5,2-5,6.4ZM498.7,575.7h5.6c.6-2.2,1.2-4.2-.3-5.8-1.7,1.9-3.5,3.8-5.4,5.8ZM449.6,658.2c1.4-1.3,2.4-2.2,3.4-3.2-2-1.4-3.1-5.3-6.5-2.2-.6,2.6,1.6,3.6,3.1,5.4ZM643,496.2c.6,2.5-.5,4.4,1.3,6.4,1.9-1.9,3.7-3.7,6.2-6.4h-7.5ZM253.7,499c-2.1-1.2-4-1.2-6.1,0v2.7c2.1,1.2,4,1.2,6.1,0v-2.7ZM546.6,368.4c3.1.3,4.4-1.5,5.5-3.4-1-1.1-2-2.1-3.2-3.3-.7,2.2-4.3,2.8-2.3,6.7ZM345.9,598.2c.7-2.3,3.4-2.5,3.1-4.9-.2-1.3,1.2-3.4-1.3-3.9-2.8,2.2-4.1,4.7-1.8,8.8ZM426.5,648.4c-1.3.6-2.7,1.3-4.8,2.3,3.1,1.5,4.1,4.9,7.1,2.5,1.4-3.1-1.7-3.9-2.3-4.8ZM599.3,604.4c1.8,2.4-1.8,6.6,4.2,6.2,1.2-2.2,1.3-4.1,0-6.2h-4.2ZM639.9,662.6c-1.6,2.2-1.7,4.3,0,6.5,1-.2,2.2.4,3-.8.2-1.9,1.2-4-.8-5.7h-2.2ZM478.5,603.7c-1.9,1.5-2,2.7-1.4,4.1,1.8,1,4,1,5.6,3.3,1.3-4.8-1.4-5.8-4.2-7.4ZM643.4,733.8c3,.5,4.4,0,4.1-3.2-1.4-.1-1.5-2.9-4.1-2.6v5.8ZM675.6,735.1c0,2.5,1.4,4,4,5.2v-5.8c-1.7-.9-2.9-.7-4,.6ZM381.8,748.4c1.9,1.2,3.8,1,6,0-1.3-2-2.5-3.8-5.2-3.5-1.3,1-1.4,2.2-.8,3.6ZM404.2,762.1c-1,1-2,2-3.1,3.1.9,1.3,1.8,2.6,3.5,3.1.9-1,1.9-2,2.8-3-1.1-1.1-2.2-2.2-3.2-3.2ZM546.1,579.1c-3-1.4-5.9-1.2-9.1,0,2.2,1.2,4.1,2.2,6,3.2,1-1,2-2,3.1-3.1ZM377.3,796.9c-.4,3.7,1.5,4.9,3.4,6.1,1.1-2.2,1.2-4.1,0-6.1h-3.4ZM442.7,377.5c-1.1,2.1-1,4,.6,6.5,1.3-2.4,4-3.2,3-5.9-1-1.2-2.3-1.3-3.6-.6ZM451,200.1c4.3,1.7,4.3,5.9,8.7,4.3-1.3-2.7-2.6-5.2-8.7-4.3ZM490.8,221.4c1.7-2.2,1.7-4.4.1-6.5-1.5-.1-2.9-.3-3.4,1.8-.3,2.3,2.2,3,3.3,4.7ZM487.6,391.9c2.1-.2,4.2,1.5,6.4-.7-1.6-1.2-2.3-3.6-4.5-3.3-2.3.5-2.1,1.9-1.9,4.1ZM528.6,286.7q-1.3-2.1-4-4c0,2-1.2,4.1.8,5.7,1.4,0,2.9.3,3.2-1.6ZM484.1,292.7c1.4-1.3,2.4-2.3,3.6-3.4-2.2-1-4.3-1.9-6.2-2.7-1.4,3.4,1.3,4.1,2.6,6.1ZM290.8,406.6c2.2,1.1,4.1,1.2,6,0,.6-1.4.5-2.6-.8-3.6-2.8-.3-3.9,1.6-5.3,3.5ZM322.3,413.7c-1-1.8-1.4-4.6-4.1-4.1-2.5.8-1.9,2.3-.8,4.1h4.9ZM130.8,431.1c2.3.1,3.7.4,4.2-1.7.2-2.7-1.7-3.6-4.2-4v5.7ZM180.4,427c-.4,3.7,1.5,4.9,5.2,7.3-1.7-3.3,0-5.2-1.9-7.3h-3.4ZM643.6,434.8c1.9,1.1,3.8,1.1,6.3-.3-2-1.3-2.7-3.9-5.7-3.3-1.2,1-1.4,2.2-.7,3.6ZM565.6,522.8c.3,3.5-1.4,5.6.8,7.8,1.4.1,2.8.3,3.4-1.8.3-2.3-2.2-3-4.2-6ZM598,571.6c3,.5,4.4,0,4.1-3.2-1.4-.1-1.5-2.9-4.1-2.6v5.8ZM383.5,566c-2,3-4.6,3.7-4.2,6.3.9,2.3,2.4,1.9,4.2.7v-7ZM545.8,611.6c-2.1-1.7-2.6.9-3.5,1.8-.9.9-3.1,1.4-2.4,3.5,1.6.7,2.8.4,3.8-.7,1.1-1.2,2.7-2.2,2-4.5ZM428.8,617.9c-1.9-1.2-3.8-1.1-5.8-.1-.7,1.3-.6,2.6.7,3.7,2.6.2,4.1-1.4,5.1-3.6ZM566.5,638.8c2.5-2.3-2-2.6-1.4-5,.5-1.8-2.1-1.9-4-.7,2.8,1.1.5,6.5,5.4,5.7ZM663.5,667.3c-1.2,1.9-1,3.8.3,6.4,1.4-2,3.8-2.7,3.3-5.6-1-1.3-2.2-1.4-3.6-.8ZM564.4,669.2c-1.2,1-2.7,1.8-3,3.6,1,.9,2,1.8,2.8,2.6,1.3-1.1,2.3-2,3.4-3-1.1-1.1-2.2-2.2-3.2-3.2ZM381.5,713.4c.3-2.8-1.7-3.9-3.5-5.3-1.1,2.3-1.3,4.3,0,6.1,1.4.6,2.6.5,3.6-.8ZM413.2,363.9c1.2-2.1,1.2-4,.1-5.9-1.4-.7-2.6-.6-3.6.7-.4,2.8,1.5,4,3.5,5.2ZM418.1,712.2c.5-3,0-4.4-3.2-4.1-.8.9-2,2.1-3.8,4.1h7ZM635.9,740.5c2.3-3.8-.9-4.6-2.5-6.5-2.3,3.8.9,4.6,2.5,6.5ZM481.4,399.5c-2.5-1.1-3.8-1-4.6.3-.5.9-2.8,1.1-1.6,2.8,3.3,1.4,4.1-1.6,6.2-3.1ZM479.5,147.9c1.4-.2,2.6.4,3.4-.9.6-1.3.5-2.5-.8-3.5-2.8-.3-3.9.8-2.6,4.4ZM340.4,788.2c-.2,4.8,1.6,4.9,4.3,3.3-.2-1.2.4-2.3-1.1-3.3h-3.3ZM585,433.3c4.8.2,4.9-1.6,3.3-4.3-1.2.2-2.3-.4-3.3,1.1v3.3ZM714.4,725.4c-4.8-.2-4.9,1.6-3.3,4.3,1.2-.2,2.3.4,3.3-1.1v-3.3ZM483,197.5c-4.8-.2-4.9,1.6-3.3,4.3,1.2-.2,2.3.4,3.3-1.1v-3.3ZM198.7,407.3c1.5-1.5,1.6-2.9,0-4.3-1,.2-2.2-.5-2.9.9-.6,1.3-.5,2.5.8,3.5h2.1ZM473.7,219c.8-1.5,2.9-1.9,2.3-4.6-1.9,1.2-4-.7-5.8,1.6,1,.9,2,1.8,3.5,3.1ZM555.6,647.5c-1.5,1.5-1.6,2.9.1,4.4.9-.3,2.1.5,2.9-1,.6-1.2.4-2.5-.9-3.4h-2.1ZM530.8,728.5c-2-1-3.9-1.9-5.9-2.8-1,1.3-1.1,2.5,0,3.7,2,.1,4.1,1.2,5.8-.8ZM403.1,522.9c-3.8-2.3-4.6.9-6.5,2.5,3.8,2.3,4.6-.9,6.5-2.5ZM353.3,723.8c.2,1.4-.4,2.6.9,3.4,1.3.6,2.5.5,3.5-.8.3-2.8-.8-3.9-4.4-2.6ZM209.6,435.5c-1.3,1-1.7,2.5-.7,3.5.9,1,1.5,3,3.5,2.6,1.6-3.4-1.6-4.2-2.8-6.1ZM506,443.6c-1.7,2.9-1.5,4.9-.1,7,1.2-1.2,2.2-2.2,2.3-2.3-.7-1.5-1.4-3-2.2-4.7ZM513.5,295c-.2,4.8,1.6,4.9,4.3,3.3-.2-1.2.4-2.3-1.1-3.3h-3.3ZM537.3,302.5c1.5,1.5,2.9,1.6,4.4-.1-.3-.9.4-2.1-1.4-3.1-2-.5-3.4.3-3,3.2ZM609.6,628.1c1.5-2,4.8-2.7,2.4-6.7-1.5,2-4.8,2.7-2.4,6.7ZM369.5,640.9c-2.3,4,1,4.7,2.4,6.7,2.3-4-1-4.7-2.4-6.7ZM643.3,570.7c1.5,1.5,2.9,1.6,4.3,0-.2-1,.5-2.2-.8-2.9-2.7-.9-3.8.2-3.5,3ZM524.1,327.3c-4.8-.2-4.9,1.6-3.3,4.3,1.2-.2,2.3.4,3.3-1.1v-3.3ZM454.1,336.1c2.3-4-1-4.7-2.4-6.7-2.3,4,1,4.7,2.4,6.7ZM488.2,414.2c.8,1.4,1.5,2.8,2.7,5.1q1-7.1-.5-7.4c-1,1-2,2-2.3,2.3ZM313.5,716.9c1.3-2.7,1.3-4.6,0-6.5-1.5,1.2-2.5,2.1-3.6,3,1.1,1.1,2.1,2.1,3.5,3.5ZM423.7,355.4c1.5-1.5,1.6-2.9,0-4.3-1,.2-2.2-.5-3.2,1.3-.5,2.1.3,3.4,3.2,3.1ZM494,460.3c-1.5-1.5-2.9-1.6-4.4.1.3.9-.4,2.1.8,2.8q2.7-.4,3.6-2.9ZM608.2,755.5c-1.6.3-2.8-.3-3.5.8.9,1.9,1.9,3.8,2.8,5.8,1.9-1.8,1-3.8.7-6.6ZM393.4,686.4c-1.5,1.5-1.6,2.9.1,4.4.9-.3,2.1.4,2.9-1,.6-1.2.4-2.5-.9-3.4h-2.1ZM688.6,805.2c.2-4.8-1.6-4.9-4.3-3.3.2,1.2-.4,2.3,1.1,3.3h3.3ZM489.7,382.4c-1.5-1.5-2.9-1.6-4.4.1.3.9-.4,2.1.9,2.9,1.3.6,2.5.4,3.4-.9v-2.1ZM362,685.3c1.5,1.5,2.9,1.6,4.3,0-.2-1,.5-2.2-.8-2.9-2.7-.9-3.8.2-3.5,3ZM525.3,550.1c-1.5,1.5-1.6,2.9.1,4.4.9-.3,2.1.5,2.9-.9.9-2.7-.2-3.7-3-3.5ZM553.9,577.9c-.8-1.5-1.6-2.9-2.2-4-1.7,1.4-2.7,2.3-3.8,3.2,1.8,2,3.9,1,5.9.8ZM513.2,386.5c-1.5.7-2.9,1.4-4.4,2.1,2.6.2,4.9,2.9,6.7.2-1.2-1.2-2.2-2.2-2.3-2.3ZM620.2,760.1c1.5,1.8.9,4.8,2.8,6.2,1.1-2.2,1.2-4.1,0-6.2h-2.8ZM669.2,792.2c.2-4.8-1.6-4.9-4.3-3.3.2,1.2-.4,2.3,1.1,3.3h3.3ZM126.1,394.6c.3,1.9-.3,3,1,3.8,1.3.6,2.5.5,3.5-.8q-.9-2.5-4.5-3ZM511.3,494.1c-.2,4.8,1.6,4.9,4.3,3.3-.2-1.2.4-2.3-1.1-3.3h-3.3ZM224,421.5c2.7.8,5.4,1.8,8.9-.4-3.7-1.1-6.3-1.2-8.9.4ZM635.7,759.9c1.5-1.5,1.6-2.9-.1-4.4-.9.3-2.1-.4-2.9.9-.9,2.7.2,3.7,3,3.5ZM585.9,502.5c-1.5,1.5-1.6,2.9,0,4.3,1-.2,2.2.5,3.2-1.3.5-2.1-.3-3.4-3.2-3.1ZM702.5,827c-2.3,3.8.9,4.6,2.5,6.5,2.3-3.8-.9-4.6-2.5-6.5ZM688.9,833.5c4.8.2,4.9-1.6,3.3-4.3-1.2.2-2.3-.4-3.3,1.1v3.3ZM354.4,597.4c-1.5,2.8-1.4,4.7.1,7.1,1.4-2.6,1.5-4.5-.1-7.1ZM482.8,162.2c-.6-1.7-1.7-2.8-3.3-3.5-.9,2.1-.8,3.3.5,4.3.9-.1,2.1.4,2.8-.7ZM347.5,404.2c-5.8-2.5-5.1.1-4.6,2.9,1.6-1,2.9-1.8,4.6-2.9ZM465.7,224.8c.7-.6.7-2-1-3.6-.9.2-1.8.3-2.2.4,1,1,2.1,2.1,3.2,3.2ZM275.3,413c.7-.6.7-2-1-3.6-.9.2-1.8.3-2.2.4,1,1,2.1,2.1,3.2,3.2ZM477.7,306.5c2.5-6.2-.3-5.2-2.4-4.8.7,1.4,1.4,2.9,2.4,4.8ZM471.7,308.7q-3.3-.7-2.9,4.6c1.4-2.2,2.2-3.5,2.9-4.6ZM518.8,345.4c2.5-6.2-.3-5.2-2.4-4.8.7,1.4,1.4,2.9,2.4,4.8ZM479.9,373c1.6-2.8,1.4-4.7,0-7.1-1.5,2.6-1.5,4.5,0,7.1ZM200,414.7c-.7.6-.7,2,1,3.6.9-.2,1.8-.3,2.2-.4-1-1-2.1-2.1-3.2-3.2ZM633.1,573q3.3.7,2.9-4.6c-1.4,2.2-2.2,3.5-2.9,4.6ZM462.6,383.7c1.7-2.3,1.7-4.4,0-6.7-1.7,2.3-1.7,4.4,0,6.7ZM424.1,559.8c5.7,2.3,5.4,0,4.4-2.8-1.4.9-2.7,1.7-4.4,2.8ZM169.3,421.6c.5-.6.7-2-1-3.6-.9.2-1.8.3-2.2.4,1,1,2.1,2.1,3.2,3.2ZM669.5,802.2c-2.7-1.7-4.7-1.4-7.1,0,2.5,1.6,4.4,1.5,7.1,0ZM532,632.5c.5,1.3,1.1,2.8,1.8,4.5,1.6-1.9,1.6-3.1.4-4.5h-2.2ZM576.9,426.4c1.7-.6,2.8-1.7,3.6-3.3-2.1-.9-3.3-.8-4.3.5.1.9-.4,2.1.7,2.8ZM672.7,824.7c-.7-1.5-1.4-3-2.2-4.7-1.6,2.2-1.7,3.4-.5,4.7h2.6ZM701.4,742.8c.3,1.9.5,2.8.4,2.1.9-.4,2.4-1,5.1-2.1h-5.4ZM294,828.5c-2.5,5.8.1,5.1,2.9,4.6-1-1.6-1.8-2.9-2.9-4.6ZM639.7,784.9c-6.2-2.5-5.2.3-4.8,2.4,1.4-.7,2.9-1.4,4.8-2.4ZM474.9,425.4c.6,1.7,1.7,2.8,3.3,3.6.9-2.1.8-3.3-.5-4.3-.9.1-2.1-.4-2.8.7ZM343.4,628.2c.7,1.5,1.4,3,2.2,4.7,1.6-2.2,1.7-3.4.5-4.7h-2.6ZM603.7,724.1q-3.3-.7-2.9,4.6c1.4-2.2,2.2-3.5,2.9-4.6ZM531.1,434c.6,1.7,1.7,2.8,3.3,3.6.9-2.1.8-3.3-.5-4.3-.9.1-2.1-.4-2.8.7ZM414.8,446.5c.7,1.5,1.4,3,2.2,4.7,1.6-2.2,1.7-3.4.5-4.7h-2.6ZM303,791.2c5.8,2.5,5.1-.1,4.6-2.9-1.6,1-2.9,1.8-4.6,2.9ZM459.6,622.3c-.7.6-.7,2,1,3.6.9-.2,1.8-.3,2.2-.4-1-1-2.1-2.1-3.2-3.2ZM514.6,601.2c-2.5,6.2.3,5.2,2.4,4.8-.7-1.4-1.4-2.9-2.4-4.8ZM239.5,478.4c1.7-.6,2.8-1.7,3.6-3.3-2.1-.9-3.3-.8-4.3.5.1.9-.4,2.1.7,2.8ZM438.9,670.6c-2.3,5.7,0,5.4,2.8,4.4-.9-1.4-1.7-2.7-2.8-4.4ZM508.8,585.8c2.7,1.7,4.7,1.4,7.1,0-2.5-1.6-4.4-1.5-7.1,0ZM439.3,665.6q-3.3-.7-2.9,4.6c1.4-2.2,2.2-3.5,2.9-4.6ZM195.3,456.3c.7-.6.7-2-1-3.6-.9.2-1.8.3-2.2.4,1,1,2.1,2.1,3.2,3.2ZM608.8,557.2c1.1-.4,2.8-.9,4.6-1.5-2.1-1.6-3.3-1.7-4.6-.4v1.9ZM375.3,493.7c-.3-1.9-.5-2.8-.4-2.1-.9.4-2.4,1-5.1,2.1h5.4ZM497.9,493.1c-.6-1.7-1.7-2.8-3.3-3.6-.9,2.1-.8,3.3.5,4.3.9-.1,2.1.4,2.8-.7ZM537.4,455.8c1.3-.5,2.8-1.1,4.5-1.8-1.9-1.6-3.1-1.6-4.5-.4v2.2ZM361.7,619.5c.3,1.9.5,2.8.4,2.1.9-.4,2.4-1,5.1-2.1h-5.4ZM427.7,463.2c1.7-.6,2.8-1.7,3.6-3.3-2.1-.9-3.3-.8-4.3.5.1.9-.4,2.1.7,2.8ZM346.6,658.4c.3,1.9.5,2.8,1.1,5.7,1-3.1,3.2-3.3,3.1-5.7h-4.2ZM309.3,789.1c6.2,2.5,5.2-.3,4.8-2.4-1.4.7-2.9,1.4-4.8,2.4ZM551.1,582.7c.7,1.5,1.4,3,2.2,4.7,1.6-2.2,1.7-3.4.5-4.7h-2.6ZM650.4,659.5q3.3.7,2.8-4.6c-1.4,2.2-2.2,3.5-2.8,4.6ZM665.7,698.4c-6.2-2.5-5.2.3-4.8,2.4,1.4-.7,2.9-1.4,4.8-2.4ZM601,516.3c2.5-6.2-.3-5.2-2.4-4.8.7,1.4,1.4,2.9,2.4,4.8ZM531,561.7c-.7.6-.7,2,1,3.6.9-.2,1.8-.3,2.2-.4-1-1-2.1-2.1-3.2-3.2ZM671.7,782.3c.6,1.7,1.7,2.8,3.3,3.6.9-2.1.8-3.3-.5-4.3-.9.1-2.1-.4-2.8.7ZM503.7,65.7c1.4-2,2-3.3-.3-4.2-1.2,1.3-1.1,2.5.3,4.2ZM428.9,267.8c2,1.4,3.3,2,4.2-.3-1.3-1.2-2.5-1.1-4.2.3ZM513.4,272.2c1.5,1.6,2.9,1.6,4.4,0-1.5-1.6-2.9-1.6-4.4,0ZM427.6,273.7c.5,1-2.1,2.9.8,3.5,1-1.3,1.1-2.5-.8-3.5ZM486.4,297c-1.6,1.5-1.6,2.9,0,4.4,1.6-1.5,1.6-2.9,0-4.4ZM442.2,302.4c-2-1.4-3.3-2-4.2.3,1.3,1.2,2.5,1.1,4.2-.3ZM425.3,309.4c1-.5,2.9,2.1,3.5-.8-1.3-1-2.5-1.1-3.5.8ZM521.4,322.5c-.4-1.1,2.2-2.8-.7-3.6-1.2,1.2-1.1,2.4.7,3.6ZM475.6,320.8c-1.6,1.5-1.6,2.9,0,4.4,1.6-1.5,1.6-2.9,0-4.4ZM498.3,337c-1.5-1.6-2.9-1.6-4.4,0,1.5,1.6,2.9,1.6,4.4,0ZM444.9,345.1c.4,1.1-2.2,2.8.7,3.6,1.2-1.2,1.1-2.4-.7-3.6ZM471.9,375.5c-1,.5-2.9-2.1-3.5.8,1.3,1,2.5,1.1,3.5-.8ZM291.3,381.9c.5,1-2.1,2.9.8,3.5,1-1.3,1.1-2.5-.8-3.5ZM651.9,808.6c-1.5-1.6-2.9-1.6-4.4,0,1.5,1.6,2.9,1.6,4.4,0ZM620.6,751.4c1.3-1.9,1.9-3.3-.7-4.2-.5,1.4-1.1,2.6.7,4.2ZM262.7,832.4c-2-1.4-3.3-2-4.2.3,1.3,1.2,2.5,1.1,4.2-.3ZM368.6,743.7c-1.5-1.6-2.9-1.6-4.4,0,1.5,1.6,2.9,1.6,4.4,0ZM608.8,735.1c-2-1.4-3.3-2-4.2.3,1.3,1.2,2.5,1.1,4.2-.3ZM716.9,843.2c-2-1.3-3.4-2-4.2.4,1.3,1.1,2.5,1.1,4.2-.4ZM657.3,731.8c1.6-1.5,1.6-2.9,0-4.4-1.6,1.5-1.6,2.9,0,4.4ZM517.6,711.3c2,1.4,3.3,2,4.2-.3-1.3-1.2-2.5-1.1-4.2.3ZM500.5,704.8c1.5,1.6,2.9,1.6,4.4,0-1.5-1.6-2.9-1.6-4.4,0ZM336.2,776.1c-2-1.3-3.4-2-4.2.4,1.3,1.1,2.5,1.1,4.2-.4ZM520.9,699.3c-1.3,1.9-1.9,3.3.7,4.2.5-1.4,1.1-2.6-.7-4.2ZM659.4,775c-1.4,1.9-2,3.3.6,4.3.6-1.4,1-2.6-.6-4.3ZM385.9,691.8c-1.5-1.6-2.9-1.6-4.4,0,1.5,1.6,2.9,1.6,4.4,0ZM650.9,766.5c1.4-1.9,2-3.3-.6-4.3-.6,1.4-1,2.6.6,4.3ZM557.9,684.3c1.3-1.9,1.9-3.3-.7-4.2-.5,1.4-1.1,2.6.7,4.2ZM594.5,762c-1.4,1.9-2,3.3.6,4.3.6-1.4,1-2.6-.6-4.3ZM564.4,660.5c1.3-1.9,1.9-3.3-.7-4.2-.5,1.4-1.1,2.6.7,4.2ZM636.8,644.2c-1.5-1.6-2.9-1.6-4.4,0,1.5,1.6,2.9,1.6,4.4,0ZM347.9,634.4c-1.4,1.9-2,3.3.6,4.3.6-1.4,1-2.6-.6-4.3ZM364.4,629.1c-2-1.4-3.3-2-4.2.3,1.3,1.2,2.5,1.1,4.2-.3ZM541.7,626.9c-2-1.4-3.3-2-4.2.3,1.3,1.2,2.5,1.1,4.2-.3ZM331.9,611.8c-2-1.4-3.3-2-4.2.3,1.3,1.2,2.5,1.1,4.2-.3ZM656.1,598.8c2,1.3,3.4,2,4.2-.4-1.3-1.1-2.5-1.1-4.2.4ZM401,598.8c-1.5-1.6-2.9-1.6-4.4,0,1.5,1.6,2.9,1.6,4.4,0ZM391.1,589c-1.3,1.9-1.9,3.3.7,4.2.5-1.4,1.1-2.6-.7-4.2ZM481,583.6c1.5,1.6,2.9,1.6,4.4,0-1.5-1.6-2.9-1.6-4.4,0ZM589,579.4c2,1.3,3.4,2,4.2-.4-1.3-1.1-2.5-1.1-4.2.4ZM416.1,577.2c-1.5-1.6-2.9-1.6-4.4,0,1.5,1.6,2.9,1.6,4.4,0ZM614,567.4c-1.6,1.5-1.6,2.9,0,4.4,1.6-1.5,1.6-2.9,0-4.4ZM280.9,790.2c1.6-1.5,1.6-2.9,0-4.4-1.6,1.5-1.6,2.9,0,4.4ZM272.4,792.5c1.3-1.9,1.9-3.3-.7-4.2-.5,1.4-1.1,2.6.7,4.2ZM481.2,544.7c-2-1.3-3.4-2-4.2.4,1.3,1.1,2.5,1.1,4.2-.4ZM486.5,541.5c1.3-1.9,1.9-3.3-.7-4.2-.5,1.4-1.1,2.6.7,4.2ZM472.2,538.2c2,1.4,3.3,2,4.2-.3-1.3-1.2-2.5-1.1-4.2.3ZM358.8,792.5c1.4-1.9,2-3.3-.6-4.3-.6,1.4-1,2.6.6,4.3ZM532.8,536.1c2,1.4,3.3,2,4.2-.3-1.3-1.2-2.5-1.1-4.2.3ZM620.1,526.8c.5,1-2.1,2.9.8,3.5,1-1.3,1.1-2.5-.8-3.5ZM263.6,528.5c1.6-1.5,1.6-2.9,0-4.4-1.6,1.5-1.6,2.9,0,4.4ZM713.5,790.1c-1.3,1.9-1.9,3.3.7,4.2.5-1.4,1.1-2.6-.7-4.2ZM521.4,506.4c-.4-1.1,2.2-2.8-.7-3.6-1.2,1.2-1.1,2.4.7,3.6ZM361.9,793.5c2,1.3,3.4,2,4.2-.4-1.3-1.1-2.5-1.1-4.2.4ZM198.3,461.9c.5,1-2.1,2.9.8,3.5,1-1.3,1.1-2.5-.8-3.5ZM255.4,458.8c-.5-1,2.1-2.9-.8-3.5-1,1.3-1.1,2.5.8,3.5ZM370.7,451.7c1.5,1.6,2.9,1.6,4.4,0-1.5-1.6-2.9-1.6-4.4,0ZM155.9,448c-.5-1,2.1-2.9-.8-3.5-1,1.3-1.1,2.5.8,3.5ZM644.3,796.6c-1.4,1.9-2,3.3.6,4.3.6-1.4,1-2.6-.6-4.3ZM213.9,416c-1.6,1.5-1.6,2.9,0,4.4,1.6-1.5,1.6-2.9,0-4.4ZM306.8,755.5c-1.3,1.9-1.9,3.3.7,4.2.5-1.4,1.1-2.6-.7-4.2ZM494.5,411c1-.5,2.9,2.1,3.5-.8-1.3-1-2.5-1.1-3.5.8ZM390,765.3c2,1.4,3.3,2,4.2-.3-1.3-1.2-2.5-1.1-4.2.3ZM151.1,409.5c-1.6,1.5-1.6,2.9,0,4.4,1.6-1.5,1.6-2.9,0-4.4ZM174.5,407.8c.5,1-2.1,2.9.8,3.5,1-1.3,1.1-2.5-.8-3.5ZM126.9,407.8c.5,1-2.1,2.9.8,3.5,1-1.3,1.1-2.5-.8-3.5ZM323.1,754.5c-1.5-1.6-2.9-1.6-4.4,0,1.5,1.6,2.9,1.6,4.4,0ZM640.1,811.9c1.4-1.9,2-3.3-.6-4.3-.6,1.4-1,2.6.6,4.3ZM463.7,652.9c.7,1,1.4,1,2.1,0-.7-1-1.4-1-2.1,0ZM587,655c.7,1,1.4,1,2.1,0-.7-1-1.4-1-2.1,0ZM405.3,600.9c.7,1,1.4,1,2.1,0-.7-1-1.4-1-2.1,0ZM630.3,600.9c.7,1,1.4,1,2.1,0-.7-1-1.4-1-2.1,0ZM575.1,604.2c1-.7,1-1.4,0-2.1-1,.7-1,1.4,0,2.1ZM481,505.8c.7,1,1.4,1,2.1,0-.7-1-1.4-1-2.1,0ZM528.6,605.3c.7,1,1.4,1,2.1,0-.7-1-1.4-1-2.1,0ZM365.3,660.4c1-.7,1-1.4,0-2.1-1,.7-1,1.4,0,2.1ZM435.6,659.4c-.7-1-1.4-1-2.1,0,.7,1,1.4,1,2.1,0ZM352.3,545.8c-1,.7-1,1.4,0,2.1,1-.7,1-1.4,0-2.1ZM604.3,499.3c-.7-1-1.4-1-2.1,0,.7,1,1.4,1,2.1,0ZM393.4,662.6c1-.7,1-1.4,0-2.1-1,.7-1,1.4,0,2.1ZM686.5,663.7c-.7-1-1.4-1-2.1,0,.7,1,1.4,1,2.1,0ZM529.7,489.5c1-.7,1-1.4,0-2.1-1,.7-1,1.4,0,2.1ZM337.2,485.2c-1,.7-1,1.4,0,2.1,1-.7,1-1.4,0-2.1ZM585.9,669.1c-1,.7-1,1.4,0,2.1,1-.7,1-1.4,0-2.1ZM487.5,484.1c.7,1,1.4,1,2.1,0-.7-1-1.4-1-2.1,0ZM255,480.9c1-.7,1-1.4,0-2.1-1,.7-1,1.4,0,2.1ZM396.6,579.3c-.7-1-1.4-1-2.1,0,.7,1,1.4,1,2.1,0ZM433.4,683.1c.7,1,1.4,1,2.1,0-.7-1-1.4-1-2.1,0ZM516.7,578.3c-1,.7-1,1.4,0,2.1,1-.7,1-1.4,0-2.1ZM232.3,473.3c.7,1,1.4,1,2.1,0-.7-1-1.4-1-2.1,0ZM522.1,683.1c.7,1,1.4,1,2.1,0-.7-1-1.4-1-2.1,0ZM430.2,467.9c-1,.7-1,1.4,0,2.1,1-.7,1-1.4,0-2.1ZM583.8,688.5c1-.7,1-1.4,0-2.1-1,.7-1,1.4,0,2.1ZM403.1,613.9c-.7-1-1.4-1-2.1,0,.7,1,1.4,1,2.1,0ZM527.5,708c-1,.7-1,1.4,0,2.1,1-.7,1-1.4,0-2.1ZM366.4,449.5c.7,1,1.4,1,2.1,0-.7-1-1.4-1-2.1,0ZM341.5,712.4c-1,.7-1,1.4,0,2.1,1-.7,1-1.4,0-2.1ZM560,630.1c1-.7,1-1.4,0-2.1-1,.7-1,1.4,0,2.1ZM192.2,446.3c1-.7,1-1.4,0-2.1-1,.7-1,1.4,0,2.1ZM625.9,717.8c-.7-1-1.4-1-2.1,0,.7,1,1.4,1,2.1,0ZM332.8,634.5c1-.7,1-1.4,0-2.1-1,.7-1,1.4,0,2.1ZM495.1,433.3c-1,.7-1,1.4,0,2.1,1-.7,1-1.4,0-2.1ZM243.1,890.8c.7,1,1.4,1,2.1,0-.7-1-1.4-1-2.1,0ZM246.3,876.7c1-.7,1-1.4,0-2.1-1,.7-1,1.4,0,2.1ZM283.1,429c-1,.7-1,1.4,0,2.1,1-.7,1-1.4,0-2.1ZM536.2,426.8c-1,.7-1,1.4,0,2.1,1-.7,1-1.4,0-2.1ZM698.4,840c1-.7,1-1.4,0-2.1-1,.7-1,1.4,0,2.1ZM628.1,741.6c-.7-1-1.4-1-2.1,0,.7,1,1.4,1,2.1,0ZM704.9,835.7c-1,.7-1,1.4,0,2.1,1-.7,1-1.4,0-2.1ZM276.6,424.7c-1,.7-1,1.4,0,2.1,1-.7,1-1.4,0-2.1ZM438.8,747c-1,.7-1,1.4,0,2.1,1-.7,1-1.4,0-2.1ZM349,769.7c-.7-1-1.4-1-2.1,0,.7,1,1.4,1,2.1,0ZM656.2,748c.7,1,1.4,1,2.1,0-.7-1-1.4-1-2.1,0ZM267.9,394.4c-1,.7-1,1.4,0,2.1,1-.7,1-1.4,0-2.1ZM482.1,420.3c1-.7,1-1.4,0-2.1-1,.7-1,1.4,0,2.1ZM380.4,418.2c-1,.7-1,1.4,0,2.1,1-.7,1-1.4,0-2.1ZM300.4,416c-1,.7-1,1.4,0,2.1,1-.7,1-1.4,0-2.1ZM402.1,530.7c-1,.7-1,1.4,0,2.1,1-.7,1-1.4,0-2.1ZM140.3,418.2c1-.7,1-1.4,0-2.1-1,.7-1,1.4,0,2.1ZM70,378.1c-.7-1-1.4-1-2.1,0,.7,1,1.4,1,2.1,0ZM456.1,416c1-.7,1-1.4,0-2.1-1,.7-1,1.4,0,2.1ZM530.7,367.3c-.7-1-1.4-1-2.1,0,.7,1,1.4,1,2.1,0ZM469.1,359.7c1-.7,1-1.4,0-2.1-1,.7-1,1.4,0,2.1ZM396.6,637.7c-.7-1-1.4-1-2.1,0,.7,1,1.4,1,2.1,0ZM432.3,344.6c-1,.7-1,1.4,0,2.1,1-.7,1-1.4,0-2.1ZM473.4,336c1-.7,1-1.4,0-2.1-1,.7-1,1.4,0,2.1ZM420.5,332.7c.7,1,1.4,1,2.1,0-.7-1-1.4-1-2.1,0ZM501.6,331.6c1-.7,1-1.4,0-2.1-1,.7-1,1.4,0,2.1ZM539.4,321.9c-.7-1-1.4-1-2.1,0,.7,1,1.4,1,2.1,0ZM115.4,412.8c-.7-1-1.4-1-2.1,0,.7,1,1.4,1,2.1,0ZM348,528.5c-1,.7-1,1.4,0,2.1,1-.7,1-1.4,0-2.1ZM511.3,321.9c.7,1,1.4,1,2.1,0-.7-1-1.4-1-2.1,0ZM526.5,311.1c.7,1,1.4,1,2.1,0-.7-1-1.4-1-2.1,0ZM536.2,292.7c-1,.7-1,1.4,0,2.1,1-.7,1-1.4,0-2.1ZM402.1,586.9c-1,.7-1,1.4,0,2.1,1-.7,1-1.4,0-2.1ZM514.5,262.4c-1,.7-1,1.4,0,2.1,1-.7,1-1.4,0-2.1ZM505.9,589c1-.7,1-1.4,0-2.1-1,.7-1,1.4,0,2.1ZM469.1,643.1c1-.7,1-1.4,0-2.1-1,.7-1,1.4,0,2.1ZM389.1,526.3c1-.7,1-1.4,0-2.1-1,.7-1,1.4,0,2.1ZM598.9,643.1c-1,.7-1,1.4,0,2.1,1-.7,1-1.4,0-2.1ZM579.4,645.3c-1,.7-1,1.4,0,2.1,1-.7,1-1.4,0-2.1ZM186.8,401.9c.7,1,1.4,1,2.1,0-.7-1-1.4-1-2.1,0ZM471.3,156.4c-1,.7-1,1.4,0,2.1,1-.7,1-1.4,0-2.1ZM578.3,520.9c-.7-1-1.4-1-2.1,0,.7,1,1.4,1,2.1,0ZM623.8,598.8c-.7-1-1.4-1-2.1,0,.7,1,1.4,1,2.1,0ZM279.9,761c.7,1,1.4,1,2.1,0-.7-1-1.4-1-2.1,0ZM495.1,522c1-.7,1-1.4,0-2.1-1,.7-1,1.4,0,2.1Z"/>
  <path class="st0" d="M751.4,398.7v5.3c.8,1.6,2.6.8,3.8,1.7,1.3,1.5,0,3.4.7,5.1,1.2,1.2,2.5,2.5,4,4v9.5c-1.1.2-2.1.4-3.3.7-.8,2.2,1.9,3.6,1.5,6.1-.3,2.2-3.7,2.9-2.3,5.7.9.9,2,1.9,2.9,2.9,4.5-1.1,2.5-5.9,4.4-8.5,7.1,4,7.2,4.2,2.3,11h-6.8c-.3,1-.9,1.9-.7,2.2,1.7,2.6,2.8,5.3,2.3,8,3.8,2.1,4.5-3.2,7.5-1.6,1.2-2.7,2.5-5.5,3.7-8.2,1.5-.6,3.5-.4,4.8-3.2,1.2,1.6,2.1,2.9,3.2,4.3.4,3-2.8,3.8-4.1,5.8,1.7,5.2,6.4,2.8,9.7,3.8,1.8,2.3,0,4.9,1,7.3,1.1,2.4,5.6-.2,5.1,4.9-2,1.4-.6,4.7-1.2,8.7-2.5,2.1-5.8,4.8-9.2,7.6,2.5,2,3.4,4.3,6.1,3.8,2.7-1.5-.3-5,2.3-6.5,2.8-.7,3.5,2,5.6,3.1v11.4c2.9,1.8,6.1-.6,8.4,1.7-3.5,4-9.1,5.3-12.2,10.6-5-4.2-9.9-7.9-15.8-9.8.5-1,.7-1.5,1-1.9.3-.6.7-1.2,1.1-1.8-1-4.4-4-5.2-8-4.3-1.5,2.8-1,5.2,1.6,7.5-3.8,2-5,5.5-4.7,10.3-1.4-1.4-1.9-1.9-2.5-2.5-1.9-.3-2.8,2.6-5.3,1.8-1.8-.6-4.4-.8-5.7,1.7-2.7-.6-3.3-4.6-6.7-4-2.7,1.5.2,5-2.3,6.5-.7,0-1.4,0-2.2,0-2.1-2.1-.6-4.8-1.1-7.3,1.8-2,3.8-4,5.1-5.4,2.6-.5,3.4.7,4.5,1.8,5.5-2.4,1.4-10.7,8.3-11.4-1.5-3.2-2.5-5.4-3.8-8.2-1.8,2.8-.7,5.6-1.2,8-5.5,3.1-14.2.9-16.1,10-5.8-1.3-5.8-6.3-8.1-10,3.5-2,6.8-.8,10.5-1.3.9-.8,2.2-2,3.7-3.4-2.5-4.5-6.5-7.1-9.5-10.8,0-3,4.6-5.7,1.4-9.3-3-.9-4.7,3.2-7.7,2,0-6.1,5.2-10,6.6-16.2-2.7-.3-4.4-4.6-8-1.4-.8-.8-1.5-1.5-2.5-2.5.7-5,6.1-7.5,6.5-12.5,8,.2,4.9,10.8,11.8,11.4.6,5.7,4.5,9.7,7.3,14.1,2.1.8,2.2-1.4,3.7-1.9v-10.3c-2.6,1.3-4.9,3-7.7,1.5,0-5.9,1.3-8.5,6.1-11.4-1.9-4.4,3.7-8.9,1.6-12.4-2.4-4.1-.7-8.2-3.1-14.1-.9-2.9-7.4,2-8.5-3.5-4.4,2.7-7.6,5.9-11.9,7.2-6.4-5.9-6-8.3,1.8-10.9,3.2-1.1,6.3-3.2,9.9-2,2.7.9,3.5-2.1,5.7-2.3,2-.6,2.3,2.7,4.3,2.2ZM768.8,476.5c-2.3-3.4-4.8-7-7.1-10.5-2.2,0-4.3-1.3-6.3,1.5,3.4,4.3,5.5,9.7,10.2,13.3.9-1.4,3-2,3.2-4.3ZM783,461.3c-1.7,3-2.5,6.6-6.8,6.8-1.1,0-1,1.7-1,3,1.9.9,3.8,1.9,5.8,2.9,1-1,2-2.1,2.9-3-.4-3.2.7-6.5-.9-9.7ZM772.9,466.2c.1-4.9,1.2-8.9-3.7-11.3-1.1,2.5.5,6-2.9,8.7,3.3-1.7,4,1.1,6.6,2.6ZM751.4,480.7c.2-4.8-1.6-4.9-4.3-3.3.2,1.2-.4,2.3,1.1,3.3h3.3ZM792.5,495c-1.5-1.6-2.9-1.6-4.4,0,1.5,1.6,2.9,1.6,4.4,0Z"/>
  <path class="st0" d="M846.7,427.5c-1.5-6.9,5.5-8.4,10-11.2,1.9-3.6-1.2-8.6,4.2-10.6,2.9,1.9,5.3,5,6.4,8.4,4.5-.7,2.9-3.5,3-5.2.2-1.9.3-3.5,2.3-4.5-.8-.9-1.5-1.7-2.2-2.4,5.1-2.9,10.6-5.5,11-13.4-4.6-.4-8.5-2.1-11.2-6.8,9.9-2.1,12.2,6.9,17.4,11.5v8.3c-1.9,4.9-8.1,2.2-10.6,7,0,1.8-.2,4.3-.3,6.6-5,1.1-7.2,5.6-10.6,8.2-.7,3,2,3.7,2.9,5.5,1.7-.7,2.3-3.2,4.7-1.9,2.2,1.3.2,3.9,1.6,5.8,2.8.7,6.3.2,8.2,4.3-3.3.4-6.5,1.1-8.8,2.8-3.2-.4-1.3-3.4-2.9-4.1-6,1.6-2.1,7.5-4.8,11.1-6.3-2.7-8.6-7.7-9.8-13.1.7-2.8,2.8-3.7,4.7-6.1-1.3-.8-2.6-1.7-4.5-3-3.5-.3-4.7,7.9-10.8,3Z"/>
  <path class="st0" d="M541.6,258.1c1-3.4-2.8-5.4-2.3-8.8.5-3.1.1-6.4.1-9.4-9.9-5.3-14.8-14-18.2-24.8-1.4-1.4-3.4-3.4-5.5-5.5v-6.5c4.4-2.9,9.5-3.9,14.3-5.7,2.4,5-3.2,5.4-3.6,9.2.9,5.1,3.8,10,7,14.2,3.9,2.1,6.2-1.7,9-1.7,2.7,1.8.5,4,1.8,5.9-3.9,1.1-7.9.5-9.3,5.5,2.1,2.3,4.5,4.9,6.9,7.5v4.1c2.9,2.9,5.7,5.7,8.5,8.5,0,3.2,0,6.5,0,9.7-1.7,0-3.5.4-4.7-1.4-1-1.4-2.6-.5-3.9-.7Z"/>
  <path class="st0" d="M686.5,540.4c2.6,1.6,3.7,4.8,7.4,5.6,2.4.5,1.3,5.5,3.5,5.8,3.9,1.6,4.8-3.3,7.8-1.3,1,2.7-3.9,4.3-2.3,5.8,2.5,4,6,.9,7.5,4.1,0,4.3-5.2,2.2-6.3,4.9-2.6.6-3.7-4.7-6.7-1.1.6.7,1.3,1.5,2.1,2.4-1,.8-2.1,1.7-3.8,3.1-4.5.3-10.1-1.2-15.8,3.6,0-7.1,5-8.5,7.1-11.8,2-3.2,7.4-2.6,8.4-8-3.3-1.3-6.9-1.6-10-3.5-2.6-1.8-.1-4.5-2.9-8.6.3.2-1.6-.9-2.7-1.6.3-3.1-.6-4.9.9-6.6h4.9c1.5,2.4.5,5,.8,7.4Z"/>
  <path class="st0" d="M724.5,435.5c-1.5-.2-3.7.3-4.8-.6-1.4-1.2-3.1-1.4-4.5-2-1.3-5.7-6.6-10.4-4.1-17.4,4.3,1.5,4.4,5.1,6.2,8.1,2.4,0,3.7,4.5,7.3,3,2-2.5,0-3.8-2.2-5.8h10.5c1.4-3,2.6-5.7,4.1-8.9,2.9,1.2,3.9,5.8,10.8,3.4-6.4,6.2-5.2,10.6-2.3,15.1q-5.9,0-8.4-7.9c-4,0-4.8,3.2-5.9,6.3-1.6.2-3.3.4-5,.5-1.7,1.6-.1,3.5-1.7,6.3Z"/>
  <path class="st0" d="M701.9,403.4c1.7,2.6,2.6,4,3.7,5.6-1.3,3-6.2,2.1-8.1,6.6,0,.6-.3,2.3-.4,3.9-4.5,2.3-9.4,3.2-11.6,9-1.2,3.2-4.5,6.7-9.1,4.5-.5,1.9-.7,2.9-1.1,4.2h-9.9c-1.3-2.5.2-3.6,1.5-4.8-.6-1.7-4-2.7-1.3-5.2q1.8-.8,7.7,3.9c1.3.2,2.2-.4,2.3-1.5.7-4.6,3.9-5.3,7.9-5.1,5.5-6.6,13.1-11.6,18.4-21.1Z"/>
  <path class="st0" d="M721.6,533.2c.8-1.2,2.8-.1,5.1-.5,3.7-5.5,11.2-7.2,14.8-12.9,2.1.1,3.5.2,5.3.3v10.6c-6.6,3.2-15,3.8-21.3,9.2-1.2-.9-2-1.5-2.7-2.2-.7-.7-1.9-1.2-1.1-4.4Z"/>
  <path class="st0" d="M939.6,381.4c2.1,1,4.2,2,6.1,3-1.3,2.6-2.6,5.2-4,7.9-1.3.3-2.8-.6-4,.7-3.9,4-7.6,8.3-12.8,10.2-.2,2.3,3,3.4,1.3,5.7-.5.9-.8.7-1.6,0-2.9-3-5.9-6-8.9-8.9,1.7-1.9,3.6-.7,5.3-1.1,2.4-2.4,5.5-4.3,6.1-8.5h9.3c.6-3.3,3.8-5.3,3-8.8Z"/>
  <path class="st0" d="M696.5,431.4c2.8-3.9,5.2-5.8,8.7-4.1,3.6,1.7,3,5.2,2.9,8.4,1.1,3.8,6.1,4.8,6.6,9.7-3.5,1.3-6.3.4-10.1-.9-7.2-2.5-4.6-9.1-8.1-13.1Z"/>
  <path class="st0" d="M697.3,513.4c6.3,0,10.3-5.7,16.2-6.7,2.1,2.5.7,5.1,1.1,7.4-1.2,2.3-4.2,1.6-5.8,3.8-1.4,1.9.2,4.2-1,5.7-5.1,2.3-8.7-1.1-12.5-2.1-.8-3.4,3.1-5.1,2-8Z"/>
  <path class="st0" d="M853.1,387.9v8.3c1.2.9,2.9,2.2,4.6,3.5-3.2,2-6.6,2.3-7,7.1-.4,4.7-1.6,4.7-8.4,4-.2-4,2.6-5.1,5.7-5.9,1.7-2.2,0-4.8.9-6.8-.9-1.9-2.7-1.2-4.5-2.3v-12.2c1.7,0,3.3-.3,4.7,1.3,1.1,1.2,1.8,3.1,3.9,3Z"/>
  <path class="st0" d="M673.5,500.4v-3.3c2.3-2.4,5.5,0,9.4-2.2,3.5-1.3.2-6.4,2.1-9.5,1,0,1.7,0,2.4-.1.4.5,1.2,1,1.2,1.5.1,2.1,0,4.2,0,6-1.6,1.6-2.8,2.8-4.3,4.3,0,2.6-.7,5.7.2,8.2.9,2.2,2.4,4.1,1.9,7-3.7,2.8-6.3.6-8.6-2.4-1.3-2.6,2.9-3.2,2.1-5.7-1.2-2.7-3.1-4.4-6.5-3.9Z"/>
  <path class="st0" d="M494,67.7c-1.2,5,4,9,2,13.7-1.5,5-7.4,1.9-9.5,5.7-1.2-2-3.5-1.8-5.2-2.9v-6.9c1-1.3,2.1-.9,3.4-.8.4,1.2.8,2.4,1,2.9,1.6-1.4,3.6-3.1,5.4-4.7-.5-.2-1.7-.6-3-1.1.1-2.4,3.5-3.2,1.8-5.9h4.2Z"/>
  <path class="st0" d="M853.4,386.8c-.5-1.7.5-4.7-2.5-6.6,1-1,2-2,2.8-2.8,6.1,2,9.3,6.4,10.2,12.3,2.2.2,3.9.4,5.5.6,1.6,1.6.4,3.5.8,5.2-.6.4-1.1,1-1.7,1-4.1.5-6.8-1.2-7.2-5.7-2.3-2.2-6.9,1.7-8.1-4Z"/>
  <path class="st0" d="M578.4,370.6c0-3.2,0-6.5,0-9.8,1-1,2-2,3.1-3,1.5.6,2.2,2.8,4.4,1.9,2.6,3.9,3.4,9,7.3,11.5v9.9h-3.7v-9.2c-1.4-1.4-2.4-2.4-3.4-3.4-3-.9-4.6,3.2-7.7,2Z"/>
  <path class="st0" d="M727.6,464.7c-.5.5-1,1-2.2,2.1,2.2,2.2,4.5,4.5,6.4,6.4v4.7c-2.4,1.7-4.9.5-7.3.9-4.5-3.4-4.9-9.2-8.6-13.7,4.1-2.8,8.1-.5,11.7-.4Z"/>
  <path class="st0" d="M388.2,804.4c1.9,1.9,2.9,3,4.1,4.1v8.9c-2.3,2-5,4.3-8.7,7.6-1.5.5-4-.4-6.2-3.5,4.2-4.8,10.3-8.7,10.8-17.1Z"/>
  <path class="st0" d="M541.6,169.2c4.3,4.2,4.3,7.1,4.3,10-3.1,1-5.6,3.8-10.1,3-.5-3.5-1.3-7.4-5-9.4,1.9-3.6,5.9-3.3,8.2-5.5.6-.5,2.2-.4,3.1,0,1.2.5,2.2,1.6-.5,1.9-4.4,3.5-5.1,7.1-.6,8.4.9-1,1.8-1.9,1.6-1.7-1.7-2.5-3.3-4.7-1-6.7Z"/>
  <path class="st0" d="M809,426.8c-5.5.3-6.1,6.9-11,6.6-1.9-1.9-1.1-3.9-.7-5.8,3.4-4.5,9.2-4.1,13.8-6.9.7.6,1.7,1.5,3,2.8-5.4,3.6.2,7.6.1,12-3.1-2.8-4.4-5-5.2-8.7Z"/>
  <path class="st0" d="M689.6,435.3c2.8,6.2,7,12.1,5,20-4.5-3.7-5.6-9.5-10.3-12q.7-5,5.3-7.9Z"/>
  <path class="st0" d="M682,474.7c.2,2.3.7,4-.3,5.6-1.3,2.3-5.2,2.1-5.7,3.8-.6,2.4-1.8,3.8-3.4,5-1.1.9-2.6.6-3.7-1.3.4-3.9,5.9-5.4,5.2-10.6-.4-2.5,3.9-3.3,7.7-2.6Z"/>
  <path class="st0" d="M750.2,399c2-4.1,3.3-6.7,4.6-9.4,4.5,1.4,6,5.5,9.4,7.4v7.4c-3.5,0-3.9-2.6-4.6-5.4h-9.3Z"/>
  <path class="st0" d="M687.7,465c8.1,3.6,4.7,13.8,12.9,17.2-6.1,2.2-7-4.6-11.1-3.7-1.6-4-4.7-7.7-1.8-13.5Z"/>
  <path class="st0" d="M674.6,602h4.4c1.7,1.8,3.5,3.5,6.2,6.3-5.9-1.4-7.1,7.4-13.3,3.9-2-4.2,1.8-6.9,2.7-10.3Z"/>
  <path class="st0" d="M831.3,418c6.7.3,6.3,4.8,7.2,8.5,1.7.2,3.4.4,5.4.6.9,2.6.7,5.3,0,8.2h-5.3c-1-6.1-4.2-11.1-7.3-17.2Z"/>
  <path class="st0" d="M803.9,461.3c-3.3,5.4,3.4,9.7,1.1,14.8-3.4,1.6-4.3-1.4-6-2.8.7-.8,1.3-1.5,1.9-2.2-2.1-2.8-5.6-4.4-6.8-8.4,2.9-2.4,6.2-.8,9.7-1.5Z"/>
  <path class="st0" d="M643.3,397.6c0-3.6,2.7-3.8,3.3-6.3,6,3.5,7.8,7.9,7.4,13.6-4,.9-5.1-1.9-6.8-3.4-1.6-1.3-2.9-2.9-3.9-3.9Z"/>
  <path class="st0" d="M673,457.1c1.6-3.2,5.2-.9,5.2-4.1,3.6,1.8,6.8,3.3,10.2,5v4.7c-2.6,2.6-6.3.4-9.6-5.6h-5.9Z"/>
  <path class="st0" d="M735.7,379.4c-5.4,6.6-2.6,14.9-10.3,19.6.5-7.3,2.1-13.6,5.3-19.5.2-.4,1.8,0,5,0Z"/>
  <path class="st0" d="M688.9,405.8c-1,1.6-2.1,1.5-3.8,1.5-.4-4.9-5.9-6.9-7.7-10.8,1.8-3.4,4.1-1.7,6-1.9,1.9,3.9,3.7,7.7,5.4,11.3Z"/>
  <path class="st0" d="M963.4,379.2v-5.4c2.4-2,5.4-1,8-.9,2.5.1,3.6-3.8,6.6-1.8-.3,3.8-4.7,2.9-6.2,5.2-2.2,3.2-5.2,3.1-8.4,2.9Z"/>
  <path class="st0" d="M404.1,808.9c-3.1-2.5-4.4-3.6-5.3-4.3q0-2.9,7-8c3.2,1.5,1.3,4.4,1.6,6.6.3,2.7-2.9,2.6-3.3,5.7Z"/>
  <path class="st0" d="M793.3,939.5c-2.8-4-4.4-6.3-5.8-8.3,1.6-.9.6-4.1.7-7.1,1.3.8,1.9,1,2.2,1.4q4,6.1,2.8,13.9Z"/>
  <path class="st0" d="M909.7,398c-1.4,2.8-2.4,4.9-3.5,7-3.5.7-4.9-1.4-5.2-7.7,1.8-.9,3.5-1.7,5.4-2.6.9.9,1.9,1.9,3.3,3.3Z"/>
  <path class="st0" d="M522.2,159q5.2.1,8.5,3.8c-.2,2.3-2.1,3.3-3.8,4.5-4.6-1.1-5.4-4.2-4.7-8.3Z"/>
  <path class="st0" d="M516,95.9c5.4,2.7,4.3,9,8.8,12.2-5.8,2.2-6-3.9-8.8-4.1v-8.2Z"/>
  <path class="st0" d="M716.7,536.4c-.7,4.9,2.6,4.7,4.4,6-.9,1-1.9,2-3.5,3.7-.8-1.6-1.6-3.1-2.4-4.6-2.3-1.4-5,1-6.8-1v-2.6c2.4-1.8,5-.1,8.3-1.6Z"/>
  <path class="st0" d="M832.5,444.2c-3.4-.2-4.7-1.9-5.5-4.4.5-2.2,2-3.7,4-4.2,1.5-.4,3.5-.8,5,1.5-1.1,2.3-2.4,4.8-3.5,7.1Z"/>
  <path class="st0" d="M716.9,533.7c-1.1,1.3-1.5,1.1-2.1.3-.4-.5-1.1-.8-1.6-1.2-2.5-.8-3.1,2.9-6.1,2-.7-.6-1.7-1.6-2.8-2.6-.2-2.1,2.4-2.1,2.5-3.8,4.6,0,8.4,1,10.1,5.3Z"/>
  <path class="st0" d="M809.8,479.8c.5,3.4-.3,6.1-3.8,7.6-2.8,0-4.1-1.9-4.9-4.2,0-2.3,3.9-3.8,8.6-3.4Z"/>
  <path class="st0" d="M662.5,416h-5.1c-2.5-2.1-1.7-4.3,3-8.7,2.1-.2,2.6,2,4,2.9-.5,2.2-3.2,3.2-2,5.8Z"/>
  <path class="st0" d="M891.2,431.2c-3.6-.2-5-2-5.7-4.4,1.3-4.2,4.4-4.6,8.6-4.2.4,3.8-2.5,5.8-2.9,8.6Z"/>
  <path class="st0" d="M815.8,396.9c2.2-4.2,4.8-5.9,8.8-4.1q-1.4,4.3-4.6,7.6c-1.8-.3-2.5-1.9-4.2-3.5Z"/>
  <path class="st0" d="M549.5,233.3c1.5-.9,3-1.9,4.5-2.8.5.5,1.5,1.5,2.4,2.4v9.6c-.9-3.8-5.3-5-6.9-9.2Z"/>
  <path class="st0" d="M802.6,461.4c1.7-5.1,4.3-7.4,8-9.1.4,2.8-.2,5.5-1.9,9.1h-6.1Z"/>
  <path class="st0" d="M754.8,522.2c-4-4-6.1-7.7-4.9-13,1.5,3.9,4.1,6.3,8,7.3.7,2.7-2,3.5-3.1,5.6Z"/>
  <path class="st0" d="M587.2,302.7v-9.4c6,.6,2.6,7.2,6.2,9.2-1,1-2,2-3.1,3.1-1-1-2-1.9-3.1-2.9Z"/>
  <path class="st0" d="M703,457.4c2.9,2.1,3.8,4.6,2.6,7.6-1.5,1.4-3.4.4-5.1.6-1-1-2-2-3.3-3.3,1.9-1.6,3.7-3.2,5.7-5Z"/>
  <path class="st0" d="M600.3,363.1c-3.2,1.4-6.1,1.3-8.9.2-.8-3.5,2.3-4.1,3.1-5.8,3.9.3,5.1,2.6,5.8,5.6Z"/>
  <path class="st0" d="M560.1,224.9c4.9,2.6,6.8,5.2,4.3,9.5q-5.4-2.9-4.3-9.5Z"/>
  <path class="st0" d="M611.6,379.8c3.7,3.3,5,6,6,9.1q-6.8,1.3-6-9.1Z"/>
  <path class="st0" d="M725.9,500.5c-4.9-.3-6.3-2-7-4.6,1-2.3,2.1-4.3,5.4-4.2,2.5,2.5.3,5.5,1.6,8.8Z"/>
  <path class="st0" d="M918.3,389.4c-1.6,4.6-4.4,5.7-9.4,4.4,2.3-1.5,2.2-3.7,3.3-5.6,2-.2,4-1.2,6.1,1.2Z"/>
  <path class="st0" d="M478.8,756.6c-.9,1-1.8,2-2.8,3-1.8-.6-3.1-2.5-5.4-1.9-2.1.6-2.8-1.8-4.3-2.7,1.7-2.5,4.2-2.3,5.6-.7,2,2.4,5,0,6.9,2.3Z"/>
  <path class="st0" d="M317.7,606.4h2.6c1.3,3.2.5,6.6.6,10.1-4.1-3-4.3-3-4.2-4.2.2-2-1-4.2,1-5.9Z"/>
  <path class="st0" d="M844.4,451.7c-1,1-2,2-2.9,2.9-3.6-1.8-4.6-4.4-2.9-8.1q4,1.4,5.8,5.1Z"/>
  <path class="st0" d="M894.9,382.7c2.1,4.2,3.8,7.6,5.5,11-1.7,1.3-3.5.4-5.8.7-.5-3.7-.7-7.3.3-11.7Z"/>
  <path class="st0" d="M707.3,469.7c1.6,4,1.2,6.7-2.8,8.8-.4-1.1-1.1-2.6-1.7-4.2-1.1-2.2,1-3.5,4.5-4.7Z"/>
  <path class="st0" d="M603.8,379.9c-1.5-1.6-2.4-2.6-3.4-3.7,1.6-3.6,4.4-4.2,7.9-2.9,1.1,3.8-1.6,4.8-4.5,6.7Z"/>
  <path class="st0" d="M716.8,520.9c1-1,2-2,2.9-2.9,3.6,1.7,4.6,4.4,2.9,8.1q-4-1.4-5.8-5.1Z"/>
  <path class="st0" d="M764.4,413.6v-5.1c1.7-2.1,3.8-1,5.8-.8,1.6,1.5,0,3.4.9,4.9-2.3,2.7-4.5.7-6.7,1.1Z"/>
  <path class="st0" d="M292.8,552.3c-1.1,3,2.7,4.6,2.2,7.5-1.4,1.5-4,1.6-4,0,0-3.8-4.4-4.4-4.6-7.6h6.5Z"/>
  <path class="st0" d="M630.5,423.1c-5.7-3.5-4.8-7.4-4.2-11.4,1.3,0,2,0,3.2-.1,1.7,3.4.2,7.3,1,11.5Z"/>
  <path class="st0" d="M774.3,433.6c-2-2.1-.9-4-1.3-5.7,2.1-1.7,4.3-1.7,6.6,0,0,3.4-2.2,4.7-5.2,5.7Z"/>
  <path class="st0" d="M790.4,447.7c1.3-1.6,2.2-2.6,3.1-3.6,1.1,1.1,2.1,2.1,3.1,3.1v4.8c-5.6,3.3-3.1-3.9-6.2-4.3Z"/>
  <path class="st0" d="M364.3,817.4c-.3-3.8,2-5.2,5.2-5.7,2.4,1.9.5,4.1,1.4,5.7-2.5,1.3-4.4,1.4-6.6,0Z"/>
  <path class="st0" d="M638.9,383.6c-3.3.5-5.2-1.2-6.5-4-.3-2.2,1.9-2.8,3.3-5.6.9,4,3.9,5.9,3.2,9.5Z"/>
  <path class="st0" d="M801.9,440.4c4.1-.6,6.2-1.5,8,.5,0,3.3-2.2,4.6-4.7,5.4-3.6-1-.6-3.9-3.3-5.9Z"/>
  <path class="st0" d="M701.2,390.1c.4,2.6,1.2,4.6-.4,6.3-2.7,1-3.6-1.5-5.5-2.9,1.3-1.8,2.4-3.8,5.9-3.4Z"/>
  <path class="st0" d="M840,400.4c-2.6.4-4.6,1.2-6.3-.4-.9-2.7,1.4-3.6,2.9-5.4,1.8,1.3,3.7,2.4,3.4,5.9Z"/>
  <path class="st0" d="M308.9,638.8c1.8.4,3.6-.7,5.7,1.1-2.7,1.8-3.7,5.4-8.6,5.5,1.1-2.5,2-4.6,2.9-6.7Z"/>
  <path class="st0" d="M951.2,392.2c-3,3.8-5.3,5.5-8.9,3.8.3-1.3-3.1-4,1.5-3.9,2,0,4,0,7.4,0Z"/>
  <path class="st0" d="M627.8,376.3c.7,4.9-1.8,5.6-2.9,7.3-1.1-1.7-3.6-2.4-3.2-5,1.5-3.6,4.1,0,6.2-2.3Z"/>
  <path class="st0" d="M586.8,391.4c-1.7,1.5-3.6.5-5.3.9-1.6-2.2-1.6-4.3,0-6.5,4.9-.8,2.6,4.6,5.3,5.6Z"/>
  <path class="st0" d="M850.3,449.9c4.4-3.4,6.8-.9,9.2,1.8-1.1,1.1-2.1,2.1-4.4,4.4-1.6-2-3.1-4.1-4.8-6.2Z"/>
  <path class="st0" d="M765.5,384.7c5.4,1.6,8,2.8,7.4,7.4-4.4.3-5.6-2.3-7.4-7.4Z"/>
  <path class="st0" d="M583.7,339.3c5.4,1.6,8,2.8,7.4,7.4-4.4.3-5.6-2.3-7.4-7.4Z"/>
  <path class="st0" d="M813.6,398.3c1.2,5.5-2,6-5.1,7.8-1.6-5.2.9-6.7,5.1-7.8Z"/>
  <path class="st0" d="M891.9,411.2c-2.6.4-4.6,1.2-6.3-.4-.9-2.7,1.4-3.6,2.9-5.4,1.8,1.3,3.7,2.4,3.4,5.9Z"/>
  <path class="st0" d="M818.6,453.9v-8.8c.8-1.4,2-.9,3-1,2.2,1.9,1.8,3.7-3,9.8Z"/>
  <path class="st0" d="M761.1,513.5c-1.3-2.2-4.3-2.8-2.7-6,1.7-1.2,3.9-1.2,6,.4.6,2.7-1.6,3.6-3.3,5.6Z"/>
  <path class="st0" d="M713.5,405.2c-1-1-2-2-3-3,1.2-2,2.4-3.8,5.3-3.4,2.8,3.4-.9,4.5-2.3,6.4Z"/>
  <path class="st0" d="M777.4,399.4c3.8-1.9,4.6,1.3,6.5,2.6-1.1.9-2.1,1.8-3.3,2.9-1.8-1.1-3.6-2.3-3.3-5.5Z"/>
  <path class="st0" d="M766.4,515.7h5.6c1.5.9.9,2.1,1,3.1-1.7,1.9-3.8,1-5.7.7-1.2-.8-.6-1.9-.9-3.8Z"/>
  <path class="st0" d="M542.4,208.5h2.7c1.2,2.1,1.2,4,0,6.1h-2.7c-1.2-2.1-1.2-4,0-6.1Z"/>
  <path class="st0" d="M555.6,210.5c1,1,2,2,3,3-1.2,2-2.4,3.8-5.2,3.5-2.9-3.4.9-4.5,2.3-6.5Z"/>
  <path class="st0" d="M963.4,379c.6,4.1-1.8,5.8-4.6,6.9-1.4-.8-2.2-1.5-1.4-3.7,1.5-.8,3.7-2,6-3.2Z"/>
  <path class="st0" d="M844.3,383.5c-2-1-4-2-6.1-3-.4-1.4-.6-2.8,1.7-3.6,2.8,1,5.4,2.5,4.5,6.6Z"/>
  <path class="st0" d="M672,407.2h-4.2c-1.8-2-.1-4-1.2-6.1,7.2-.6,3.6,3.7,5.4,6.1Z"/>
  <path class="st0" d="M817,480.9c-2-3.9,1.6-4.5,2.3-6.7,1.2,1.2,2.1,2.2,3.2,3.3-1.1,2-2.4,3.7-5.5,3.4Z"/>
  <path class="st0" d="M573.7,398.5h-3.6v-6.1h3.6v6.1Z"/>
  <path class="st0" d="M673.8,447.7c-.5-2.6.3-3.2,1.4-3.6,3.4,0,4.2,2.6,5.6,6.6-3.1-1.4-5.2-2.3-7-3.1Z"/>
  <path class="st0" d="M622.8,403c-.8,0-1.5,0-2.2,0-2.3-1.6-.3-3.9-1.1-5.1,1-1.8,2.2-1.2,3.3-1.4,1.7,2.2,1.7,4.3,0,6.5Z"/>
  <path class="st0" d="M492.5,52.6c-1.8-3.8,1.4-4.6,2.6-6.5,1,1,1.9,2,3,3.1-1.1,2-2.4,3.7-5.6,3.4Z"/>
  <path class="st0" d="M949.7,376c3.1-1.4,5-1.6,7-.3v2.7c-3.3,2.4-4.2-1.1-7-2.3Z"/>
  <path class="st0" d="M783.9,380.9c.3-2,1.8-1.7,3.2-1.6,2,1.6.9,3.7.8,5.7q-2.8-1.9-4-4Z"/>
  <path class="st0" d="M922.3,383c.3-2,1.8-1.7,3.2-1.6,2,1.6.9,3.7.8,5.7q-2.8-1.9-4-4Z"/>
  <path class="st0" d="M694.3,388.3c-2.2,1.6-3.5,2.5-4.9,3.5-1.5-1.5-.7-3.5-.3-5.5,1.7-1.3,3-.8,5.3,2Z"/>
  <path class="st0" d="M818.1,410.2c.7,1.4.6,2.6-.7,3.6-3,.6-3.7-1.9-5.7-3.3,2.5-1.4,4.4-1.4,6.3-.3Z"/>
  <path class="st0" d="M679.3,417.8c-1.4.7-2.6.6-3.6-.7-.4-2.8,1.5-4,3.5-5.2,1.2,2.1,1.2,4,.1,5.9Z"/>
  <path class="st0" d="M818.2,425.7c2.5-1.4,4.4-1.4,6.3-.3.7,1.4.5,2.6-.7,3.6-2.9.5-3.7-2-5.7-3.3Z"/>
  <path class="st0" d="M783.9,435.6h3.4c1.8,2.1.1,4,2,7.3-3.9-2.4-5.7-3.7-5.3-7.3Z"/>
  <path class="st0" d="M816.1,461.6v5.8c-2.6.3-2.7-2.5-4.1-2.6-.4-3.2,1-3.7,4.1-3.2Z"/>
  <path class="st0" d="M698.3,545.7c-1-1-2-2-3.2-3.2,1.1-.9,2.1-1.9,3.4-3,.8.8,1.8,1.6,2.8,2.6-.3,1.8-1.8,2.5-3,3.6Z"/>
  <path class="st0" d="M732.2,512.7c-.2-2.1-1.1-4.1.8-5.9.9,1,1.7,2.1,3.2,3.8-1.1.6-2.5,1.3-4,2.2Z"/>
  <path class="st0" d="M531.7,104.5c1.7,1.8,4.8,2.7,2.5,6.5-1.7-1.8-4.8-2.7-2.5-6.5Z"/>
  <path class="st0" d="M522.1,128.5h3.3c1.5.9.9,2.1,1.1,3.3-2.7,1.6-4.5,1.6-4.3-3.3Z"/>
  <path class="st0" d="M697.4,513.4c-1.4-.1-2.7-.2-4.1-.3-.1-1.3-.2-2.2-.3-3,1.2-1.4,2.4-1.2,4.1-.6,0,1.2.2,2.5.3,3.9Z"/>
  <path class="st0" d="M279.6,874.3c1.9-2.7,3.3-4.5,7.1-3.7-1.9,2.7-3.3,4.5-7.1,3.7Z"/>
  <path class="st0" d="M534.7,213.4c-1.7-1.7-2.7-2.7-4.2-4.2,1.3-.9,2.6-1.8,3.9-2.6,1.8,1.9.3,4,.4,6.9Z"/>
  <path class="st0" d="M817.4,433.3c2.9-.4,3.7,1,3.2,3.1-1,1.7-2.2,1.1-3.2,1.3-1.6-1.4-1.6-2.9,0-4.3Z"/>
  <path class="st0" d="M667,378.1q-.9,2.5-3.6,2.9c-1.3-.7-.6-1.9-.8-2.8,1.5-1.7,2.9-1.7,4.4-.1Z"/>
  <path class="st0" d="M662.7,386.8c-2.1,1.1-1.9,3.4-3.3,5.7-1.3-2.4-1.6-4.3-.3-6.4,1.4-.7,2.6-.5,3.6.7Z"/>
  <path class="st0" d="M816.3,386.8c0,.7,0,1.4,0,2.1-1,1.3-2.2,1.4-3.4.9-1.4-.7-.7-2-.9-2.9,1.5-1.7,2.9-1.7,4.4-.1Z"/>
  <path class="st0" d="M827.7,390.1c-1.1-3.5-.4-4.9,2.8-4.3,1.1.9,1.2,2.1.6,3.4-.8,1.3-2,.7-3.4.9Z"/>
  <path class="st0" d="M628.3,390c3,1.6,4.6,3.2,3.9,6.6-3-1.6-4.6-3.2-3.9-6.6Z"/>
  <path class="st0" d="M705.4,495.9c1.1,3.5.4,4.9-2.8,4.3-1.1-.9-1.2-2.1-.6-3.4.8-1.3,2-.7,3.4-.9Z"/>
  <path class="st0" d="M670.3,539.3c-2.8.3-3.9-.8-3-3.5.7-1.4,1.9-.7,2.9-.9,1.7,1.5,1.7,2.9.1,4.4Z"/>
  <path class="st0" d="M500.5,141.4c.3-2.2,1.9-3.2,3.5-4.1,1.1,1.1,1.1,2.3,0,3.9-1.1,0-2.3.2-3.6.3Z"/>
  <path class="st0" d="M538.3,159.2c-1.1-1.7-1.9-3-2.8-4.4,2.8-1,5.1-1.3,2.8,4.4Z"/>
  <path class="st0" d="M534.2,195.5h2.2c1.2,1.4,1.2,2.6-.4,4.5-.7-1.7-1.3-3.2-1.8-4.5Z"/>
  <path class="st0" d="M795.8,408.9c1,1.7,1.9,3,2.9,4.6-2.8.5-5.3,1.2-2.9-4.6Z"/>
  <path class="st0" d="M583.9,334h2.2c1.2,1.4,1.2,2.6-.4,4.5-.7-1.7-1.3-3.2-1.8-4.5Z"/>
  <path class="st0" d="M690.8,526.2c1.3,0,2.6.2,3.6.3,1,1.6,1.1,2.8,0,3.9-1.7-.9-3.2-2-3.5-4.1Z"/>
  <path class="st0" d="M401.9,348.8h-2.2c-1.2-1.4-1.2-2.6.4-4.5.7,1.7,1.3,3.2,1.8,4.5Z"/>
  <path class="st0" d="M744,378.6c-1.1-.7-2.4-1.5-4.6-2.8q5.2-.4,4.6,2.8Z"/>
  <path class="st0" d="M905.8,385.5c.7-1.5,1.4-3,2.7-5.9.5,3.1.7,4,.9,4.9-1.6,1.7-3,1.6-3.6,1Z"/>
  <path class="st0" d="M706.2,388.4v-1.9c1.3-1.2,2.5-1.2,4.6.4-1.8.6-3.4,1.1-4.6,1.5Z"/>
  <path class="st0" d="M802,386.3c1.1.7,2.4,1.5,4.6,2.9q-5.2.4-4.6-2.9Z"/>
  <path class="st0" d="M356.8,826.4c-1.1-.7-2.4-1.5-4.6-2.9q5.2-.4,4.6,2.9Z"/>
  <path class="st0" d="M244.2,841.8c1.4,2.6,1.5,4.6,0,7.1-1.3-2.4-1.6-4.3,0-7.1Z"/>
  <path class="st0" d="M224.3,921.1c-1.7,1.1-3,1.9-4.4,2.8-1-2.8-1.3-5.1,4.4-2.8Z"/>
  <path class="st0" d="M187.7,485.4h2.6c1.2,1.3,1.2,2.5-.5,4.7-.8-1.7-1.5-3.1-2.2-4.7Z"/>
  <path class="st0" d="M691.9,626.1c-1.5-2.6-1.5-4.5,0-7.1,1.4,2.4,1.6,4.3,0,7.1Z"/>
  <path class="st0" d="M770,507h2.2c1.2,1.4,1.2,2.6-.4,4.5-.7-1.7-1.3-3.2-1.8-4.5Z"/>
  <path class="st0" d="M543.7,192.1c1.5-1.6,2.9-1.6,4.4,0-1.5,1.6-2.9,1.6-4.4,0Z"/>
  <path class="st0" d="M555,246.6c1-1.9,2.2-1.9,3.5-.8-.7,3-2.5.3-3.5.8Z"/>
  <path class="st0" d="M920.3,373.8c-1.8,1.4-3,1.5-4.2.3.9-2.3,2.3-1.7,4.2-.3Z"/>
  <path class="st0" d="M807.2,377.7c-1,1.9-2.2,1.9-3.5.8.7-3,2.5-.3,3.5-.8Z"/>
  <path class="st0" d="M940,382.6c-2.9-2.5-3.1-3.8-1.6-5.3,2.3.8.9,2.8,1.6,5.3Z"/>
  <path class="st0" d="M746,394.4c-1.6-1.5-1.6-2.9,0-4.4,1.6,1.5,1.6,2.9,0,4.4Z"/>
  <path class="st0" d="M477.8,744.8c1.6,1.5,1.6,2.9,0,4.4-1.6-1.5-1.6-2.9,0-4.4Z"/>
  <path class="st0" d="M679,558.9c-1.7-1.7-1.2-2.9-.6-4.3,2.6,1,2,2.4.6,4.3Z"/>
  <path class="st0" d="M686.7,525c1.5-1.3,3.6-1.4,4,.3.4,2.2-1.9.3-2.9.9,0,0-.7-.8-1.1-1.2Z"/>
  <path class="st0" d="M780,508.4c1-1.9,2.2-1.9,3.5-.8-.7,3-2.5.3-3.5.8Z"/>
  <path class="st0" d="M717.3,484.6c1-1.9,2.2-1.9,3.5-.8-.7,3-2.5.3-3.5.8Z"/>
  <path class="st0" d="M832.1,470.5c1.8,1.1,1.9,2.3.7,3.6-2.9-.8-.3-2.5-.7-3.6Z"/>
  <path class="st0" d="M850.9,451c-1.3,2.2-2.6,2.4-4.1.9.8-2.3,2.8-.8,4.1-.9Z"/>
  <path class="st0" d="M714,454.5c-1.9-1-1.9-2.2-.8-3.5,3,.7.3,2.5.8,3.5Z"/>
  <path class="st0" d="M723.3,410.6c-1.5,1.6-2.9,1.6-4.4,0,1.5-1.6,2.9-1.6,4.4,0Z"/>
  <path class="st0" d="M828.2,405.2c1.6,1.5,1.6,2.9,0,4.4-1.6-1.5-1.6-2.9,0-4.4Z"/>
  <path class="st0" d="M499.4,39.6c1.6,1.5,1.6,2.9,0,4.4-1.6-1.5-1.6-2.9,0-4.4Z"/>
  <path class="st0" d="M825,460.3c.7-1,1.4-1,2.1,0-.7,1-1.4,1-2.1,0Z"/>
  <path class="st0" d="M787.1,922.2c-1-.7-1-1.4,0-2.1,1,.7,1,1.4,0,2.1Z"/>
  <path class="st0" d="M255,809.7c1,.7,1,1.4,0,2.1-1-.7-1-1.4,0-2.1Z"/>
  <path class="st0" d="M720,390c-1-.7-1-1.4,0-2.1,1,.7,1,1.4,0,2.1Z"/>
  <path class="st0" d="M638.9,383.6c1-.2,1.7.3,1.9,1.3,0,.2-.5.7-.6.6-1-.2-1.5-.9-1.3-1.9Z"/>
  <path class="st0" d="M318.8,381.4c-.2-1,.3-1.7,1.3-1.9.2,0,.7.5.6.6-.2,1-.9,1.5-1.9,1.3Z"/>
  <path class="st0" d="M766.6,376c.7-1,1.4-1,2.1,0-.7,1-1.4,1-2.1,0Z"/>
  <path class="st0" d="M516.7,171.5c-1-.7-1-1.4,0-2.1,1,.7,1,1.4,0,2.1Z"/>
  <path class="st0" d="M938.5,398.7c1,.7,1,1.4,0,2.1-1-.7-1-1.4,0-2.1Z"/>
  <path class="st0" d="M528.6,139.1c.2,1-.3,1.7-1.3,1.9-.2,0-.7-.5-.6-.6.2-1,.9-1.5,1.9-1.3Z"/>
  <path class="st0" d="M528.6,139.1c-.2-1,.3-1.7,1.3-1.9.2,0,.7.5.6.6-.2,1-.9,1.5-1.9,1.3Z"/>
  <path class="st0" d="M534,121.8c-1-.7-1-1.4,0-2.1,1,.7,1,1.4,0,2.1Z"/>
  <path class="st0" d="M478.8,102.3c-1,.2-1.6-.3-1.9-1.3,0-.2.5-.7.6-.6,1,.2,1.5.8,1.2,1.9Z"/>
  <path class="st0" d="M699.9,731.2c-3.4-3.6-3.1-5.7-1.6-8,2.4,1.8.7,4.3,1.6,8Z"/>
  <path class="st0" d="M637,486.6c-2.2-3.2-3.9-5.5-5.6-8,.6-.9,2.8.4,4.7.5,1.4,1.9.5,4.1.9,7.5Z"/>
  <path class="st0" d="M428,383.5c1.6,1.5,1.6,2.9,0,4.4-1.6-1.5-1.6-2.9,0-4.4Z"/>
  <path class="st0" d="M565.3,487.4c3.1-.6,5,.9,6.3,3.5-1.8,1.4-3.7.9-6,.2,0-1.1-.2-2.4-.3-3.7Z"/>
</svg>